<?xml version="1.0" encoding="UTF-8" standalone="no"?>
<svg
   width="568"
   height="188"
   viewBox="0 0 568 188"
   version="1.1"
   id="svg156"
   sodipodi:docname="Base-catalysed_aldol_condensation.svg"
   inkscape:version="1.3 (0e150ed6c4, 2023-07-21)"
   xmlns:inkscape="http://www.inkscape.org/namespaces/inkscape"
   xmlns:sodipodi="http://sodipodi.sourceforge.net/DTD/sodipodi-0.dtd"
   xmlns="http://www.w3.org/2000/svg"
   xmlns:svg="http://www.w3.org/2000/svg">
  <defs
     id="defs156" />
  <sodipodi:namedview
     id="namedview156"
     pagecolor="#ffffff"
     bordercolor="#999999"
     borderopacity="1"
     inkscape:showpageshadow="2"
     inkscape:pageopacity="0"
     inkscape:pagecheckerboard="0"
     inkscape:deskcolor="#d1d1d1"
     inkscape:zoom="1.5782332"
     inkscape:cx="288.29706"
     inkscape:cy="242.99324"
     inkscape:window-width="1920"
     inkscape:window-height="1009"
     inkscape:window-x="-8"
     inkscape:window-y="-8"
     inkscape:window-maximized="1"
     inkscape:current-layer="svg156"
     shape-rendering="crispEdges" />
  <path
     d="m 16.653209,70.8 v -9.544275 h 1.263021 v 3.919272 h 4.96094 v -3.919272 h 1.263022 V 70.8 H 22.87717 V 66.3013 H 17.91623 V 70.8 Z"
     id="text1"
     style="font-size:200px;font-family:Arial;stroke-width:0.0666667"
     aria-label="H" />
  <path
     stroke="none"
     fill="#000000"
     d="m 27.050706,62.222091 -0.4,-0.692667 10.370005,-6.006003 -6.66e-4,0.924001 z"
     id="path1"
     style="stroke-width:0.0666667" />
  <path
     stroke="none"
     fill="#000000"
     d="m 37.020045,56.447422 6.66e-4,-0.924001 16.640009,9.629338 -0.0073,0.447334 -0.386,0.228667 z"
     id="path2"
     style="stroke-width:0.0666667" />
  <path
     d="m 32.485632,37.35156 q 0,-2.376303 1.276042,-3.71745 1.276042,-1.347656 3.294272,-1.347656 1.321616,0 2.382814,0.63151 1.061198,0.631511 1.614584,1.764324 0.559896,1.126303 0.559896,2.558595 0,1.451824 -0.585937,2.597658 -0.585938,1.145833 -1.660157,1.738282 -1.07422,0.585938 -2.31771,0.585938 -1.347657,0 -2.408855,-0.651042 -1.061199,-0.651043 -1.608074,-1.777345 -0.546875,-1.126303 -0.546875,-2.382814 z m 1.302084,0.01953 q 0,1.725262 0.924479,2.721356 0.93099,0.989584 2.330731,0.989584 1.425781,0 2.34375,-1.002605 0.92448,-1.002605 0.92448,-2.845053 0,-1.165366 -0.397135,-2.031252 -0.390625,-0.872396 -1.152345,-1.347656 -0.755208,-0.481771 -1.699219,-0.481771 -1.341147,0 -2.311199,0.924479 -0.963542,0.91797 -0.963542,3.072918 z"
     id="text2"
     style="font-size:200px;font-family:Arial;stroke-width:0.0666667"
     aria-label="O" />
  <path
     stroke="none"
     fill="#000000"
     d="M 35.698711,56.998089 H 34.89871 V 44.255416 h 0.800001 z"
     id="path3"
     style="stroke-width:0.0666667" />
  <path
     stroke="none"
     fill="#000000"
     d="M 39.154713,56.998089 H 38.354712 V 44.255416 h 0.800001 z"
     id="path4"
     style="stroke-width:0.0666667" />
  <path
     d="m 66.533209,61.2 v -9.544275 h 1.263021 v 3.919272 h 4.96094 v -3.919272 h 1.263022 V 61.2 H 72.75717 V 56.7013 H 67.79623 V 61.2 Z"
     id="text4"
     style="font-size:200px;font-family:Arial;stroke-width:0.0666667"
     aria-label="H" />
  <path
     stroke="none"
     fill="#000000"
     d="m 54.039387,65.82076 -0.386001,-0.220667 0.0073,-0.447334 9.641338,-5.585336 0.4,0.692667 z"
     id="path5"
     style="stroke-width:0.0666667" />
  <path
     d="m 49.887078,90 v -9.544275 h 4.231773 q 1.276042,0 1.940105,0.260416 0.664063,0.253906 1.061198,0.904949 0.397136,0.651041 0.397136,1.438803 0,1.015625 -0.657553,1.71224 -0.657552,0.696615 -2.031251,0.885417 0.501303,0.240885 0.761719,0.475261 0.553386,0.507812 1.048178,1.269531 L 58.29854,90 H 56.709998 L 55.446976,88.014322 Q 54.89359,87.154947 54.535517,86.699217 54.177444,86.243488 53.890986,86.061196 53.611038,85.878904 53.318069,85.80729 53.103225,85.761717 52.614944,85.761717 H 51.150099 V 90 Z m 1.263021,-5.332034 h 2.714845 q 0.865886,0 1.354168,-0.175781 0.488281,-0.182292 0.742188,-0.572917 0.253906,-0.397136 0.253906,-0.859375 0,-0.677084 -0.494792,-1.113282 -0.488282,-0.436199 -1.54948,-0.436199 h -3.020835 z"
     id="text5"
     style="font-size:200px;font-family:Arial;stroke-width:0.0666667"
     aria-label="R" />
  <path
     stroke="none"
     fill="#000000"
     d="m 53.267386,65.82876 0.386,-0.228667 0.386001,0.220667 0.014,12.657339 h -0.800001 z"
     id="path6"
     style="stroke-width:0.0666667" />
  <path
     stroke="none"
     fill="#000000"
     d="M 122.41342,56.546755 H 92.893406 v -0.8 h 29.520014 z"
     id="path7"
     style="stroke-width:0.0666667" />
  <path
     stroke="none"
     fill="#000000"
     d="m 98.626742,58.146756 h 29.520018 v 0.8 H 98.626742 Z"
     id="path8"
     style="stroke-width:0.0666667" />
  <path
     stroke="none"
     fill="#000000"
     d="m 129.34676,56.546755 c 0,0 -7.00001,0 -7.00001,0 0,-1.333334 -1,-2.533334 -1,-2.533334 0,0 8.00001,2.533334 8.00001,2.533334 0,0 0,0 0,0"
     id="path9"
     style="stroke-width:0.0666667" />
  <path
     stroke="#000000"
     stroke-width="0.0666667"
     fill="none"
     d="m 129.34676,56.546755 c 0,0 -7.00001,0 -7.00001,0 0,-1.333334 -1,-2.533334 -1,-2.533334 0,0 8.00001,2.533334 8.00001,2.533334 0,0 0,0 0,0"
     id="path10" />
  <path
     stroke="none"
     fill="#000000"
     d="m 91.693405,58.146756 c 0,0 8.000004,2.533335 8.000004,2.533335 0,0 -1,-2.000001 -1,-2.533335 0,0 -7.000004,0 -7.000004,0 0,0 0,0 0,0"
     id="path11"
     style="stroke-width:0.0666667" />
  <path
     stroke="#000000"
     stroke-width="0.0666667"
     fill="none"
     d="m 91.693405,58.146756 c 0,0 8.000004,2.533335 8.000004,2.533335 0,0 -1,-2.000001 -1,-2.533335 0,0 -7.000004,0 -7.000004,0 0,0 0,0 0,0"
     id="path12" />
  <path
     d="m 104.45853,43.69826 q 0,-2.376303 1.27604,-3.71745 1.27605,-1.347656 3.29428,-1.347656 1.32161,0 2.38281,0.63151 1.0612,0.631511 1.61458,1.764324 0.5599,1.126303 0.5599,2.558595 0,1.451824 -0.58594,2.597658 -0.58594,1.145833 -1.66015,1.738282 -1.07422,0.585938 -2.31771,0.585938 -1.34766,0 -2.40886,-0.651042 -1.0612,-0.651043 -1.60807,-1.777345 -0.54688,-1.126303 -0.54688,-2.382814 z m 1.30209,0.01953 q 0,1.725262 0.92448,2.721356 0.93099,0.989584 2.33073,0.989584 1.42578,0 2.34375,-1.002605 0.92448,-1.002605 0.92448,-2.845053 0,-1.165366 -0.39714,-2.031252 -0.39062,-0.872396 -1.15234,-1.347656 -0.75521,-0.481771 -1.69922,-0.481771 -1.34115,0 -2.3112,0.924479 -0.96354,0.91797 -0.96354,3.072918 z m 9.49219,4.628909 v -9.544275 h 1.26302 v 3.919272 h 4.96094 v -3.919272 h 1.26302 V 48.3467 h -1.26302 V 43.848 h -4.96094 v 4.4987 z"
     id="text12"
     style="font-size:200px;font-family:Arial;stroke-width:0.0666667"
     aria-label="OH" />
  <path
     stroke="#000000"
     stroke-width="0.666667"
     fill="none"
     d="m 95.248741,32.19541 a 4.7866695,4.7866695 0 1 0 9.573339,0 4.7866695,4.7866695 0 1 0 -9.573339,0 z"
     id="path13" />
  <path
     stroke="none"
     fill="#000000"
     d="m 97.391408,31.840076 h 5.244002 v 0.666667 h -5.244002 z"
     id="path14"
     style="stroke-width:0.0666667" />
  <path
     d="m 143.39971,70.8 v -9.544275 h 1.26302 v 3.919272 h 4.96094 v -3.919272 h 1.26302 V 70.8 h -1.26302 v -4.4987 h -4.96094 V 70.8 Z"
     id="text14"
     style="font-size:200px;font-family:Arial;stroke-width:0.0666667"
     aria-label="H" />
  <path
     stroke="none"
     fill="#000000"
     d="m 153.79744,62.222091 -0.4,-0.692667 9.99133,-5.751336 0.38467,0.222 -0.007,0.447334 z"
     id="path15"
     style="stroke-width:0.0666667" />
  <path
     stroke="none"
     fill="#000000"
     d="m 163.76677,56.447422 0.007,-0.447334 0.38467,-0.229333 16.65667,9.595338 -0.80066,0.462667 z"
     id="path16"
     style="stroke-width:0.0666667" />
  <path
     stroke="none"
     fill="#000000"
     d="m 163.57344,60.336757 0.4,-0.692667 13.17067,7.60467 -0.4,0.692668 z"
     id="path17"
     style="stroke-width:0.0666667" />
  <path
     d="m 159.23253,37.35156 q 0,-2.376303 1.27604,-3.71745 1.27605,-1.347656 3.29428,-1.347656 1.32161,0 2.38281,0.63151 1.0612,0.631511 1.61458,1.764324 0.5599,1.126303 0.5599,2.558595 0,1.451824 -0.58594,2.597658 -0.58594,1.145833 -1.66015,1.738282 -1.07422,0.585938 -2.31771,0.585938 -1.34766,0 -2.40886,-0.651042 -1.0612,-0.651043 -1.60807,-1.777345 -0.54688,-1.126303 -0.54688,-2.382814 z m 1.30209,0.01953 q 0,1.725262 0.92448,2.721356 0.93099,0.989584 2.33073,0.989584 1.42578,0 2.34375,-1.002605 0.92448,-1.002605 0.92448,-2.845053 0,-1.165366 -0.39714,-2.031252 -0.39062,-0.872396 -1.15234,-1.347656 -0.75521,-0.481771 -1.69922,-0.481771 -1.34115,0 -2.3112,0.924479 -0.96354,0.91797 -0.96354,3.072918 z"
     id="text17"
     style="font-size:200px;font-family:Arial;stroke-width:0.0666667"
     aria-label="O" />
  <path
     stroke="none"
     fill="#000000"
     d="m 164.15811,55.770755 -0.38467,0.229333 -0.38467,-0.222 -0.0153,-11.522672 h 0.8 z"
     id="path18"
     style="stroke-width:0.0666667" />
  <path
     stroke="#000000"
     stroke-width="0.666667"
     fill="none"
     d="m 170.12878,30.195409 a 4.78667,4.78667 0 1 0 9.57334,0 4.78667,4.78667 0 1 0 -9.57334,0 z"
     id="path19" />
  <path
     stroke="none"
     fill="#000000"
     d="m 172.27145,29.840075 h 5.244 v 0.666667 h -5.244 z"
     id="path20"
     style="stroke-width:0.0666667" />
  <path
     stroke="#ff0000"
     stroke-width="0.8"
     fill="none"
     d="m 156.16077,39.10808 c -3.098,1.788001 -4.16067,5.753336 -2.37267,8.851338 0.73134,1.267333 1.904,2.272667 3.268,2.802001"
     id="path21" />
  <path
     stroke="none"
     fill="#ff0000"
     d="m 162.63944,50.332085 c 0,0 -6.192,2.152668 -6.192,2.152668 0,0 0.69133,-0.996667 0.60866,-1.723334 -0.0827,-0.727334 -0.98666,-1.600668 -0.98666,-1.600668 0,0 6.57,1.171334 6.57,1.171334 0,0 0,0 0,0"
     id="path22"
     style="stroke-width:0.0666667" />
  <path
     stroke="#ff0000"
     stroke-width="0.0666667"
     fill="none"
     d="m 162.63944,50.332085 c 0,0 -6.192,2.152668 -6.192,2.152668 0,0 0.69133,-0.996667 0.60866,-1.723334 -0.0827,-0.727334 -0.98666,-1.600668 -0.98666,-1.600668 0,0 6.57,1.171334 6.57,1.171334 0,0 0,0 0,0"
     id="path23" />
  <path
     d="m 176.63418,90 v -9.544275 h 4.23177 q 1.27604,0 1.94011,0.260416 0.66406,0.253906 1.06119,0.904949 0.39714,0.651041 0.39714,1.438803 0,1.015625 -0.65755,1.71224 -0.65755,0.696615 -2.03125,0.885417 0.5013,0.240885 0.76172,0.475261 0.55338,0.507812 1.04817,1.269531 L 185.04564,90 h -1.58854 l -1.26302,-1.985678 q -0.55339,-0.859375 -0.91146,-1.315105 -0.35808,-0.455729 -0.64453,-0.638021 -0.27995,-0.182292 -0.57292,-0.253906 -0.21484,-0.04557 -0.70313,-0.04557 H 177.8972 V 90 Z m 1.26302,-5.332034 h 2.71484 q 0.86589,0 1.35417,-0.175781 0.48828,-0.182292 0.74219,-0.572917 0.25391,-0.397136 0.25391,-0.859375 0,-0.677084 -0.4948,-1.113282 -0.48828,-0.436199 -1.54948,-0.436199 h -3.02083 z"
     id="text23"
     style="font-size:200px;font-family:Arial;stroke-width:0.0666667"
     aria-label="R" />
  <path
     stroke="none"
     fill="#000000"
     d="m 180.01412,65.82876 0.80066,-0.462667 -0.0147,13.112006 h -0.8 z"
     id="path24"
     style="stroke-width:0.0666667" />
  <path
     d="m 203.57371,47.1333 v -9.544275 h 1.26302 v 3.919272 h 4.96094 v -3.919272 h 1.26302 V 47.1333 h -1.26302 v -4.4987 h -4.96094 v 4.4987 z"
     id="text24"
     style="font-size:200px;font-family:Arial;stroke-width:0.0666667"
     aria-label="H" />
  <path
     stroke="none"
     fill="#000000"
     d="m 213.9708,38.555413 -0.4,-0.692667 10.37,-6.006003 -6.6e-4,0.924 z"
     id="path25"
     style="stroke-width:0.0666667" />
  <path
     stroke="none"
     fill="#000000"
     d="m 223.94014,32.780743 6.6e-4,-0.924 16.64001,9.629338 -6.6e-4,0.924667 z"
     id="path26"
     style="stroke-width:0.0666667" />
  <path
     d="m 219.40553,13.68486 q 0,-2.376303 1.27604,-3.7174495 1.27605,-1.3476567 3.29428,-1.3476567 1.32161,0 2.38281,0.6315103 1.0612,0.631511 1.61458,1.7643239 0.5599,1.126303 0.5599,2.558595 0,1.451824 -0.58594,2.597658 -0.58594,1.145833 -1.66015,1.738282 -1.07422,0.585938 -2.31771,0.585938 -1.34766,0 -2.40886,-0.651042 -1.0612,-0.651043 -1.60807,-1.777345 -0.54688,-1.126303 -0.54688,-2.382814 z m 1.30209,0.01953 q 0,1.725262 0.92448,2.721356 0.93099,0.989584 2.33073,0.989584 1.42578,0 2.34375,-1.002605 0.92448,-1.002605 0.92448,-2.845053 0,-1.165366 -0.39714,-2.031252 -0.39062,-0.872396 -1.15234,-1.347656 -0.75521,-0.4817713 -1.69922,-0.4817713 -1.34115,0 -2.3112,0.9244793 -0.96354,0.91797 -0.96354,3.072918 z"
     id="text26"
     style="font-size:200px;font-family:Arial;stroke-width:0.0666667"
     aria-label="O" />
  <path
     stroke="none"
     fill="#000000"
     d="m 222.6188,33.33141 h -0.8 V 20.588737 h 0.8 z"
     id="path27"
     style="stroke-width:0.0666667" />
  <path
     stroke="none"
     fill="#000000"
     d="m 226.07481,33.33141 h -0.8 V 20.588737 h 0.8 z"
     id="path28"
     style="stroke-width:0.0666667" />
  <path
     d="m 253.43418,37.5333 v -9.544275 h 4.23177 q 1.27604,0 1.94011,0.260416 0.66406,0.253906 1.06119,0.904949 0.39714,0.651041 0.39714,1.438803 0,1.015625 -0.65755,1.71224 -0.65755,0.696615 -2.03125,0.885417 0.5013,0.240885 0.76172,0.475261 0.55338,0.507812 1.04817,1.269531 l 1.66016,2.597658 h -1.58854 l -1.26302,-1.985678 q -0.55339,-0.859375 -0.91146,-1.315105 -0.35808,-0.455729 -0.64453,-0.638021 -0.27995,-0.182292 -0.57292,-0.253906 -0.21484,-0.04557 -0.70313,-0.04557 h -1.46484 v 4.23828 z m 1.26302,-5.332034 h 2.71484 q 0.86589,0 1.35417,-0.175781 0.48828,-0.182292 0.74219,-0.572917 0.25391,-0.397136 0.25391,-0.859375 0,-0.677084 -0.4948,-1.113282 -0.48828,-0.436199 -1.54948,-0.436199 h -3.02083 z"
     id="text28"
     style="font-size:200px;font-family:Arial;stroke-width:0.0666667"
     aria-label="R" />
  <path
     stroke="none"
     fill="#000000"
     d="m 240.58015,42.410748 6.6e-4,-0.924667 9.56201,-5.540003 0.4,0.692667 z"
     id="path29"
     style="stroke-width:0.0666667" />
  <path
     stroke="none"
     fill="#000000"
     d="M 256.17349,56.546755 H 204.1468 v -0.8 h 52.02669 z"
     id="path30"
     style="stroke-width:0.0666667" />
  <path
     stroke="none"
     fill="#000000"
     d="m 209.88013,58.146756 h 52.02669 v 0.8 h -52.02669 z"
     id="path31"
     style="stroke-width:0.0666667" />
  <path
     stroke="none"
     fill="#000000"
     d="m 263.10682,56.546755 c 0,0 -7,0 -7,0 0,-1.333334 -1,-2.533334 -1,-2.533334 0,0 8,2.533334 8,2.533334 0,0 0,0 0,0"
     id="path32"
     style="stroke-width:0.0666667" />
  <path
     stroke="#000000"
     stroke-width="0.0666667"
     fill="none"
     d="m 263.10682,56.546755 c 0,0 -7,0 -7,0 0,-1.333334 -1,-2.533334 -1,-2.533334 0,0 8,2.533334 8,2.533334 0,0 0,0 0,0"
     id="path33" />
  <path
     stroke="none"
     fill="#000000"
     d="m 202.94679,58.146756 c 0,0 8.00001,2.533335 8.00001,2.533335 0,0 -1,-2.000001 -1,-2.533335 0,0 -7.00001,0 -7.00001,0 0,0 0,0 0,0"
     id="path34"
     style="stroke-width:0.0666667" />
  <path
     stroke="#000000"
     stroke-width="0.0666667"
     fill="none"
     d="m 202.94679,58.146756 c 0,0 8.00001,2.533335 8.00001,2.533335 0,0 -1,-2.000001 -1,-2.533335 0,0 -7.00001,0 -7.00001,0 0,0 0,0 0,0"
     id="path35" />
  <path
     stroke="#ff0000"
     stroke-width="0.8"
     fill="none"
     d="m 229.32014,26.680074 c 4.136,0 7.49334,-3.357335 7.49334,-7.493338 0,-2.012001 -0.84867,-4.006002 -2.29934,-5.400669"
     id="path36" />
  <path
     stroke="none"
     fill="#ff0000"
     d="m 229.32014,11.693399 c 0,0 6.60067,0.840667 6.60067,0.840667 0,0 -1.116,0.573334 -1.40667,1.252001 -0.29066,0.678 0.078,1.849334 0.078,1.849334 0,0 -5.272,-3.942002 -5.272,-3.942002 0,0 0,0 0,0"
     id="path37"
     style="stroke-width:0.0666667" />
  <path
     stroke="#ff0000"
     stroke-width="0.0666667"
     fill="none"
     d="m 229.32014,11.693399 c 0,0 6.60067,0.840667 6.60067,0.840667 0,0 -1.116,0.573334 -1.40667,1.252001 -0.29066,0.678 0.078,1.849334 0.078,1.849334 0,0 -5.272,-3.942002 -5.272,-3.942002 0,0 0,0 0,0"
     id="path38" />
  <path
     d="m 279.65371,70.8 v -9.544275 h 1.26302 v 3.919272 h 4.96094 v -3.919272 h 1.26302 V 70.8 h -1.26302 v -4.4987 h -4.96094 V 70.8 Z"
     id="text38"
     style="font-size:200px;font-family:Arial;stroke-width:0.0666667"
     aria-label="H" />
  <path
     stroke="none"
     fill="#000000"
     d="m 290.05084,62.222091 -0.4,-0.692667 10.37,-6.006003 -6.6e-4,0.924001 z"
     id="path39"
     style="stroke-width:0.0666667" />
  <path
     stroke="none"
     fill="#000000"
     d="m 300.02018,56.447422 6.6e-4,-0.924001 16.63268,9.625338 v 0.451334 l -0.386,0.228667 z"
     id="path40"
     style="stroke-width:0.0666667" />
  <path
     d="m 295.48553,37.35156 q 0,-2.376303 1.27604,-3.71745 1.27605,-1.347656 3.29428,-1.347656 1.32161,0 2.38281,0.63151 1.0612,0.631511 1.61458,1.764324 0.5599,1.126303 0.5599,2.558595 0,1.451824 -0.58594,2.597658 -0.58594,1.145833 -1.66015,1.738282 -1.07422,0.585938 -2.31771,0.585938 -1.34766,0 -2.40886,-0.651042 -1.0612,-0.651043 -1.60807,-1.777345 -0.54688,-1.126303 -0.54688,-2.382814 z m 1.30209,0.01953 q 0,1.725262 0.92448,2.721356 0.93099,0.989584 2.33073,0.989584 1.42578,0 2.34375,-1.002605 0.92448,-1.002605 0.92448,-2.845053 0,-1.165366 -0.39714,-2.031252 -0.39062,-0.872396 -1.15234,-1.347656 -0.75521,-0.481771 -1.69922,-0.481771 -1.34115,0 -2.3112,0.924479 -0.96354,0.91797 -0.96354,3.072918 z"
     id="text40"
     style="font-size:200px;font-family:Arial;stroke-width:0.0666667"
     aria-label="O" />
  <path
     stroke="none"
     fill="#000000"
     d="m 298.69884,56.998089 h -0.8 V 44.255416 h 0.8 z"
     id="path41"
     style="stroke-width:0.0666667" />
  <path
     stroke="none"
     fill="#000000"
     d="m 302.15484,56.998089 h -0.8 V 44.255416 h 0.8 z"
     id="path42"
     style="stroke-width:0.0666667" />
  <path
     d="m 312.88718,90 v -9.544275 h 4.23177 q 1.27604,0 1.94011,0.260416 0.66406,0.253906 1.06119,0.904949 0.39714,0.651041 0.39714,1.438803 0,1.015625 -0.65755,1.71224 -0.65755,0.696615 -2.03125,0.885417 0.5013,0.240885 0.76172,0.475261 0.55338,0.507812 1.04817,1.269531 L 321.29864,90 h -1.58854 l -1.26302,-1.985678 q -0.55339,-0.859375 -0.91146,-1.315105 -0.35808,-0.455729 -0.64453,-0.638021 -0.27995,-0.182292 -0.57292,-0.253906 -0.21484,-0.04557 -0.70313,-0.04557 H 314.1502 V 90 Z m 1.26302,-5.332034 h 2.71484 q 0.86589,0 1.35417,-0.175781 0.48828,-0.182292 0.74219,-0.572917 0.25391,-0.397136 0.25391,-0.859375 0,-0.677084 -0.4948,-1.113282 -0.48828,-0.436199 -1.54948,-0.436199 h -3.02083 z"
     id="text42"
     style="font-size:200px;font-family:Arial;stroke-width:0.0666667"
     aria-label="R" />
  <path
     stroke="none"
     fill="#000000"
     d="m 316.26752,65.82876 0.386,-0.228667 0.386,0.228667 0.014,12.649339 h -0.8 z"
     id="path43"
     style="stroke-width:0.0666667" />
  <path
     stroke="#ff0000"
     stroke-width="0.8"
     fill="none"
     d="m 101.40674,43.361415 c -5.857333,-5.862003 -15.369337,-5.866003 -21.232007,-0.0087 -0.525334,0.525333 -1.011334,1.089333 -1.453334,1.686"
     id="path44" />
  <path
     stroke="none"
     fill="#ff0000"
     d="m 76.286731,50.082085 c 0,0 1.274667,-6.526003 1.274667,-6.526003 0,0 0.500667,1.149334 1.160001,1.482667 0.659334,0.333334 1.855334,0.042 1.855334,0.042 0,0 -4.290002,5.001336 -4.290002,5.001336 0,0 0,0 0,0"
     id="path45"
     style="stroke-width:0.0666667" />
  <path
     stroke="#ff0000"
     stroke-width="0.0666667"
     fill="none"
     d="m 76.286731,50.082085 c 0,0 1.274667,-6.526003 1.274667,-6.526003 0,0 0.500667,1.149334 1.160001,1.482667 0.659334,0.333334 1.855334,0.042 1.855334,0.042 0,0 -4.290002,5.001336 -4.290002,5.001336 0,0 0,0 0,0"
     id="path46" />
  <path
     stroke="#ff0000"
     stroke-width="0.8"
     fill="none"
     d="m 57.400055,59.60009 c 0,-3.106002 -2.520668,-5.626669 -5.626669,-5.626669 -0.992668,0 -1.983335,0.268666 -2.840002,0.769333"
     id="path47" />
  <path
     stroke="none"
     fill="#ff0000"
     d="m 46.146716,59.60009 c 0,0 1.730001,-6.414003 1.730001,-6.414003 0,0 0.42,1.179334 1.056667,1.556667 0.636,0.377334 1.852668,0.168667 1.852668,0.168667 0,0 -4.639336,4.688669 -4.639336,4.688669 0,0 0,0 0,0"
     id="path48"
     style="stroke-width:0.0666667" />
  <path
     stroke="#ff0000"
     stroke-width="0.0666667"
     fill="none"
     d="m 46.146716,59.60009 c 0,0 1.730001,-6.414003 1.730001,-6.414003 0,0 0.42,1.179334 1.056667,1.556667 0.636,0.377334 1.852668,0.168667 1.852668,0.168667 0,0 -4.639336,4.688669 -4.639336,4.688669 0,0 0,0 0,0"
     id="path49" />
  <path
     stroke="#ff0000"
     stroke-width="0.8"
     fill="none"
     d="m 42.146714,49.093418 c 3.518002,0 6.373337,-2.855335 6.373337,-6.373336 0,-1.404668 -0.480001,-2.804002 -1.342668,-3.913336"
     id="path50" />
  <path
     stroke="none"
     fill="#ff0000"
     d="m 42.146714,36.346745 c 0,0 6.51867,1.307334 6.51867,1.307334 0,0 -1.151334,0.494667 -1.488001,1.152667 -0.336667,0.658001 -0.05133,1.855335 -0.05133,1.855335 0,0 -4.979336,-4.315336 -4.979336,-4.315336 0,0 0,0 0,0"
     id="path51"
     style="stroke-width:0.0666667" />
  <path
     stroke="#ff0000"
     stroke-width="0.0666667"
     fill="none"
     d="m 42.146714,36.346745 c 0,0 6.51867,1.307334 6.51867,1.307334 0,0 -1.151334,0.494667 -1.488001,1.152667 -0.336667,0.658001 -0.05133,1.855335 -0.05133,1.855335 0,0 -4.979336,-4.315336 -4.979336,-4.315336 0,0 0,0 0,0"
     id="path52" />
  <path
     stroke="none"
     fill="#000000"
     d="m 317.03952,65.82876 -0.386,-0.228667 v -0.451334 l 16.24201,-9.378004 0.38466,0.229333 v 0.451334 z"
     id="path53"
     style="stroke-width:0.0666667" />
  <path
     stroke="none"
     fill="#000000"
     d="m 333.28019,56.451422 v -0.451334 l 0.38467,-0.229333 16.24934,9.382004 -6.7e-4,0.924668 z"
     id="path54"
     style="stroke-width:0.0666667" />
  <path
     d="m 328.73853,37.35156 q 0,-2.376303 1.27604,-3.71745 1.27605,-1.347656 3.29428,-1.347656 1.32161,0 2.38281,0.63151 1.0612,0.631511 1.61458,1.764324 0.5599,1.126303 0.5599,2.558595 0,1.451824 -0.58594,2.597658 -0.58594,1.145833 -1.66015,1.738282 -1.07422,0.585938 -2.31771,0.585938 -1.34766,0 -2.40886,-0.651042 -1.0612,-0.651043 -1.60807,-1.777345 -0.54688,-1.126303 -0.54688,-2.382814 z m 1.30209,0.01953 q 0,1.725262 0.92448,2.721356 0.93099,0.989584 2.33073,0.989584 1.42578,0 2.34375,-1.002605 0.92448,-1.002605 0.92448,-2.845053 0,-1.165366 -0.39714,-2.031252 -0.39062,-0.872396 -1.15234,-1.347656 -0.75521,-0.481771 -1.69922,-0.481771 -1.34115,0 -2.3112,0.924479 -0.96354,0.91797 -0.96354,3.072918 z"
     id="text54"
     style="font-size:200px;font-family:Arial;stroke-width:0.0666667"
     aria-label="O" />
  <path
     stroke="none"
     fill="#000000"
     d="m 333.66486,55.770755 -0.38467,0.229333 -0.38466,-0.229333 -0.0153,-11.515339 h 0.8 z"
     id="path55"
     style="stroke-width:0.0666667" />
  <path
     stroke="#000000"
     stroke-width="0.666667"
     fill="none"
     d="m 335.03553,26.635407 a 4.78667,4.78667 0 1 0 9.57334,0 4.78667,4.78667 0 1 0 -9.57334,0 z"
     id="path56" />
  <path
     stroke="none"
     fill="#000000"
     d="m 337.17819,26.280073 h 5.24401 v 0.666667 h -5.24401 z"
     id="path57"
     style="stroke-width:0.0666667" />
  <path
     d="m 362.76718,61.2 v -9.544275 h 4.23177 q 1.27604,0 1.94011,0.260416 0.66406,0.253906 1.06119,0.904949 0.39714,0.651041 0.39714,1.438803 0,1.015625 -0.65755,1.71224 -0.65755,0.696615 -2.03125,0.885417 0.5013,0.240885 0.76172,0.475261 0.55338,0.507812 1.04817,1.269531 L 371.17864,61.2 h -1.58854 l -1.26302,-1.985678 q -0.55339,-0.859375 -0.91146,-1.315105 -0.35808,-0.455729 -0.64453,-0.638021 -0.27995,-0.182292 -0.57292,-0.253906 -0.21484,-0.04557 -0.70313,-0.04557 H 364.0302 V 61.2 Z m 1.26302,-5.332034 h 2.71484 q 0.86589,0 1.35417,-0.175781 0.48828,-0.182292 0.74219,-0.572917 0.25391,-0.397136 0.25391,-0.859375 0,-0.677084 -0.4948,-1.113282 -0.48828,-0.436199 -1.54948,-0.436199 h -3.02083 z"
     id="text57"
     style="font-size:200px;font-family:Arial;stroke-width:0.0666667"
     aria-label="R" />
  <path
     stroke="none"
     fill="#000000"
     d="m 349.91353,66.077427 6.7e-4,-0.924668 9.56201,-5.540002 0.4,0.692667 z"
     id="path58"
     style="stroke-width:0.0666667" />
  <path
     stroke="#ff0000"
     stroke-width="0.8"
     fill="none"
     d="m 167.90678,66.34676 c -6.76001,13.506673 56.00002,15.253341 55.49336,-26.493347"
     id="path59" />
  <path
     stroke="none"
     fill="#ff0000"
     d="m 225.41214,40.828747 -2.012,-0.975334 -1.988,1.024001 1.92266,-6.423337 z"
     id="path60"
     style="stroke-width:0.0666667" />
  <path
     d="m 404.37853,40.03156 q 0,-2.376303 1.27604,-3.71745 1.27605,-1.347656 3.29428,-1.347656 1.32161,0 2.38281,0.63151 1.0612,0.631511 1.61458,1.764324 0.5599,1.126303 0.5599,2.558595 0,1.451824 -0.58594,2.597658 -0.58594,1.145833 -1.66015,1.738282 -1.07422,0.585938 -2.31771,0.585938 -1.34766,0 -2.40886,-0.651042 -1.0612,-0.651043 -1.60807,-1.777345 -0.54688,-1.126303 -0.54688,-2.382814 z m 1.30209,0.01953 q 0,1.725262 0.92448,2.721356 0.93099,0.989584 2.33073,0.989584 1.42578,0 2.34375,-1.002605 0.92448,-1.002605 0.92448,-2.845053 0,-1.165366 -0.39714,-2.031252 -0.39062,-0.872396 -1.15234,-1.347656 -0.75521,-0.481771 -1.69922,-0.481771 -1.34115,0 -2.3112,0.924479 -0.96354,0.91797 -0.96354,3.072918 z m 9.49219,4.62891 v -9.544275 h 1.26302 v 3.919272 h 4.96094 v -3.919272 h 1.26302 V 44.68 h -1.26302 v -4.4987 h -4.96094 V 44.68 Z"
     id="text60"
     style="font-size:200px;font-family:Arial;stroke-width:0.0666667"
     aria-label="OH" />
  <path
     d="m 385.97371,44.68 v -9.544275 h 1.26302 v 3.919272 h 4.96094 v -3.919272 h 1.26302 V 44.68 h -1.26302 v -4.4987 h -4.96094 V 44.68 Z"
     id="text61"
     style="font-size:200px;font-family:Arial;stroke-width:0.0666667"
     aria-label="H" />
  <path
     stroke="none"
     fill="#000000"
     d="m 402.26823,39.08008 v 0.8 h -6.69601 v -0.8 z"
     id="path61"
     style="stroke-width:0.0666667" />
  <path
     stroke="none"
     fill="#000000"
     d="m 432.66691,56.546755 h -52.01336 v -0.8 h 52.01336 z"
     id="path62"
     style="stroke-width:0.0666667" />
  <path
     stroke="none"
     fill="#000000"
     d="m 386.38689,58.146756 h 52.01336 v 0.8 h -52.01336 z"
     id="path63"
     style="stroke-width:0.0666667" />
  <path
     stroke="none"
     fill="#000000"
     d="m 439.60025,56.546755 c 0,0 -7.00001,0 -7.00001,0 0,-1.333334 -1,-2.533334 -1,-2.533334 0,0 8.00001,2.533334 8.00001,2.533334 0,0 0,0 0,0"
     id="path64"
     style="stroke-width:0.0666667" />
  <path
     stroke="#000000"
     stroke-width="0.0666667"
     fill="none"
     d="m 439.60025,56.546755 c 0,0 -7.00001,0 -7.00001,0 0,-1.333334 -1,-2.533334 -1,-2.533334 0,0 8.00001,2.533334 8.00001,2.533334 0,0 0,0 0,0"
     id="path65" />
  <path
     stroke="none"
     fill="#000000"
     d="m 379.45355,58.146756 c 0,0 8,2.533335 8,2.533335 0,0 -1,-2.000001 -1,-2.533335 0,0 -7,0 -7,0 0,0 0,0 0,0"
     id="path66"
     style="stroke-width:0.0666667" />
  <path
     stroke="#000000"
     stroke-width="0.0666667"
     fill="none"
     d="m 379.45355,58.146756 c 0,0 8,2.533335 8,2.533335 0,0 -1,-2.000001 -1,-2.533335 0,0 -7,0 -7,0 0,0 0,0 0,0"
     id="path67" />
  <path
     stroke="#ff0000"
     stroke-width="0.8"
     fill="none"
     d="m 378.01222,33.358077 c -8.85468,-9.169338 -23.48468,-9.424672 -32.65402,-0.57 -1.546,1.493334 -2.88267,3.203335 -3.95734,5.065335"
     id="path68" />
  <path
     stroke="none"
     fill="#ff0000"
     d="m 381.39955,37.853412 c 0,0 -5.222,-4.102668 -5.222,-4.102668 0,0 1.24067,0.06267 1.83467,-0.392667 0.594,-0.454667 0.86733,-1.676668 0.86733,-1.676668 0,0 2.52,6.172003 2.52,6.172003 0,0 0,0 0,0"
     id="path69"
     style="stroke-width:0.0666667" />
  <path
     stroke="#ff0000"
     stroke-width="0.0666667"
     fill="none"
     d="m 381.39955,37.853412 c 0,0 -5.222,-4.102668 -5.222,-4.102668 0,0 1.24067,0.06267 1.83467,-0.392667 0.594,-0.454667 0.86733,-1.676668 0.86733,-1.676668 0,0 2.52,6.172003 2.52,6.172003 0,0 0,0 0,0"
     id="path70" />
  <path
     stroke="#ff0000"
     stroke-width="0.8"
     fill="none"
     d="m 406.97623,29.107408 c -2.62533,-1.903334 -6.30534,-1.322001 -8.21334,1.297334 -0.724,0.994667 -1.12266,2.219335 -1.12266,3.448668"
     id="path71" />
  <path
     stroke="none"
     fill="#ff0000"
     d="m 409.40023,33.85341 c 0,0 -4.19267,-4.665335 -4.19267,-4.665335 0,0 1.17667,0.235333 1.76867,-0.08067 0.59267,-0.316667 1.07667,-1.437334 1.07667,-1.437334 0,0 1.34733,6.183336 1.34733,6.183336 0,0 0,0 0,0"
     id="path72"
     style="stroke-width:0.0666667" />
  <path
     stroke="#ff0000"
     stroke-width="0.0666667"
     fill="none"
     d="m 409.40023,33.85341 c 0,0 -4.19267,-4.665335 -4.19267,-4.665335 0,0 1.17667,0.235333 1.76867,-0.08067 0.59267,-0.316667 1.07667,-1.437334 1.07667,-1.437334 0,0 1.34733,6.183336 1.34733,6.183336 0,0 0,0 0,0"
     id="path73" />
  <path
     d="m 455.65371,70.8 v -9.544275 h 1.26302 v 3.919272 h 4.96094 v -3.919272 h 1.26302 V 70.8 h -1.26302 v -4.4987 h -4.96094 V 70.8 Z"
     id="text73"
     style="font-size:200px;font-family:Arial;stroke-width:0.0666667"
     aria-label="H" />
  <path
     stroke="none"
     fill="#000000"
     d="m 466.05093,62.222091 -0.4,-0.692667 10.37,-6.006003 -6.7e-4,0.924001 z"
     id="path74"
     style="stroke-width:0.0666667" />
  <path
     stroke="none"
     fill="#000000"
     d="m 476.02026,56.447422 6.7e-4,-0.924001 16.63268,9.625338 v 0.451334 l -0.386,0.228667 z"
     id="path75"
     style="stroke-width:0.0666667" />
  <path
     d="m 471.48553,37.35156 q 0,-2.376303 1.27604,-3.71745 1.27605,-1.347656 3.29428,-1.347656 1.32161,0 2.38281,0.63151 1.0612,0.631511 1.61458,1.764324 0.5599,1.126303 0.5599,2.558595 0,1.451824 -0.58594,2.597658 -0.58594,1.145833 -1.66015,1.738282 -1.07422,0.585938 -2.31771,0.585938 -1.34766,0 -2.40886,-0.651042 -1.0612,-0.651043 -1.60807,-1.777345 -0.54688,-1.126303 -0.54688,-2.382814 z m 1.30209,0.01953 q 0,1.725262 0.92448,2.721356 0.93099,0.989584 2.33073,0.989584 1.42578,0 2.34375,-1.002605 0.92448,-1.002605 0.92448,-2.845053 0,-1.165366 -0.39714,-2.031252 -0.39062,-0.872396 -1.15234,-1.347656 -0.75521,-0.481771 -1.69922,-0.481771 -1.34115,0 -2.3112,0.924479 -0.96354,0.91797 -0.96354,3.072918 z"
     id="text75"
     style="font-size:200px;font-family:Arial;stroke-width:0.0666667"
     aria-label="O" />
  <path
     stroke="none"
     fill="#000000"
     d="m 474.69893,56.998089 h -0.8 V 44.255416 h 0.8 z"
     id="path76"
     style="stroke-width:0.0666667" />
  <path
     stroke="none"
     fill="#000000"
     d="m 478.15493,56.998089 h -0.8 V 44.255416 h 0.8 z"
     id="path77"
     style="stroke-width:0.0666667" />
  <path
     d="m 488.88718,90 v -9.544275 h 4.23177 q 1.27604,0 1.94011,0.260416 0.66406,0.253906 1.06119,0.904949 0.39714,0.651041 0.39714,1.438803 0,1.015625 -0.65755,1.71224 -0.65755,0.696615 -2.03125,0.885417 0.5013,0.240885 0.76172,0.475261 0.55338,0.507812 1.04817,1.269531 L 497.29864,90 h -1.58854 l -1.26302,-1.985678 q -0.55339,-0.859375 -0.91146,-1.315105 -0.35808,-0.455729 -0.64453,-0.638021 -0.27995,-0.182292 -0.57292,-0.253906 -0.21484,-0.04557 -0.70313,-0.04557 H 490.1502 V 90 Z m 1.26302,-5.332034 h 2.71484 q 0.86589,0 1.35417,-0.175781 0.48828,-0.182292 0.74219,-0.572917 0.25391,-0.397136 0.25391,-0.859375 0,-0.677084 -0.4948,-1.113282 -0.48828,-0.436199 -1.54948,-0.436199 h -3.02083 z"
     id="text77"
     style="font-size:200px;font-family:Arial;stroke-width:0.0666667"
     aria-label="R" />
  <path
     stroke="none"
     fill="#000000"
     d="m 492.26761,65.82876 0.386,-0.228667 0.386,0.228667 0.014,12.649339 h -0.8 z"
     id="path78"
     style="stroke-width:0.0666667" />
  <path
     stroke="none"
     fill="#000000"
     d="m 493.03961,65.82876 -0.386,-0.228667 v -0.451334 l 16.242,-9.378004 0.38467,0.229333 v 0.451334 z"
     id="path79"
     style="stroke-width:0.0666667" />
  <path
     stroke="none"
     fill="#000000"
     d="m 509.28028,56.451422 v -0.451334 l 0.38467,-0.229333 16.24934,9.382004 -6.7e-4,0.924668 z"
     id="path80"
     style="stroke-width:0.0666667" />
  <path
     d="m 504.73853,37.35156 q 0,-2.376303 1.27604,-3.71745 1.27605,-1.347656 3.29428,-1.347656 1.32161,0 2.38281,0.63151 1.0612,0.631511 1.61458,1.764324 0.5599,1.126303 0.5599,2.558595 0,1.451824 -0.58594,2.597658 -0.58594,1.145833 -1.66015,1.738282 -1.07422,0.585938 -2.31771,0.585938 -1.34766,0 -2.40886,-0.651042 -1.0612,-0.651043 -1.60807,-1.777345 -0.54688,-1.126303 -0.54688,-2.382814 z m 1.30209,0.01953 q 0,1.725262 0.92448,2.721356 0.93099,0.989584 2.33073,0.989584 1.42578,0 2.34375,-1.002605 0.92448,-1.002605 0.92448,-2.845053 0,-1.165366 -0.39714,-2.031252 -0.39062,-0.872396 -1.15234,-1.347656 -0.75521,-0.481771 -1.69922,-0.481771 -1.34115,0 -2.3112,0.924479 -0.96354,0.91797 -0.96354,3.072918 z M 515.53281,42 v -9.544275 h 1.26302 v 3.919272 h 4.96094 v -3.919272 h 1.26302 V 42 h -1.26302 v -4.4987 h -4.96094 V 42 Z"
     id="text80"
     style="font-size:200px;font-family:Arial;stroke-width:0.0666667"
     aria-label="OH" />
  <path
     stroke="none"
     fill="#000000"
     d="m 509.66495,55.770755 -0.38467,0.229333 -0.38467,-0.229333 -0.0153,-11.515339 h 0.8 z"
     id="path81"
     style="stroke-width:0.0666667" />
  <path
     d="m 538.76718,61.2 v -9.544275 h 4.23177 q 1.27604,0 1.94011,0.260416 0.66406,0.253906 1.06119,0.904949 0.39714,0.651041 0.39714,1.438803 0,1.015625 -0.65755,1.71224 -0.65755,0.696615 -2.03125,0.885417 0.5013,0.240885 0.76172,0.475261 0.55338,0.507812 1.04817,1.269531 L 547.17864,61.2 h -1.58854 l -1.26302,-1.985678 q -0.55339,-0.859375 -0.91146,-1.315105 -0.35808,-0.455729 -0.64453,-0.638021 -0.27995,-0.182292 -0.57292,-0.253906 -0.21484,-0.04557 -0.70313,-0.04557 H 540.0302 V 61.2 Z m 1.26302,-5.332034 h 2.71484 q 0.86589,0 1.35417,-0.175781 0.48828,-0.182292 0.74219,-0.572917 0.25391,-0.397136 0.25391,-0.859375 0,-0.677084 -0.4948,-1.113282 -0.48828,-0.436199 -1.54948,-0.436199 h -3.02083 z"
     id="text81"
     style="font-size:200px;font-family:Arial;stroke-width:0.0666667"
     aria-label="R" />
  <path
     stroke="none"
     fill="#000000"
     d="m 525.91362,66.077427 6.7e-4,-0.924668 9.562,-5.540002 0.4,0.692667 z"
     id="path82"
     style="stroke-width:0.0666667" />
  <path
     d="m 12.319909,155.00461 v -9.54428 h 1.263021 v 3.91927 h 4.96094 v -3.91927 h 1.263022 v 9.54428 H 18.54387 v -4.4987 h -4.96094 v 4.4987 z"
     id="text85"
     style="font-size:200px;font-family:Arial;stroke-width:0.0666667"
     aria-label="H" />
  <path
     stroke="none"
     fill="#000000"
     d="m 22.717371,146.42675 -0.4,-0.69266 10.370005,-6.00601 -6.67e-4,0.924 z"
     id="path85"
     style="stroke-width:0.0666667" />
  <path
     stroke="none"
     fill="#000000"
     d="m 32.686709,140.65208 6.67e-4,-0.924 16.632675,9.62534 v 0.45133 l -0.515334,0.146 z"
     id="path86"
     style="stroke-width:0.0666667" />
  <path
     d="m 28.152332,121.55617 q 0,-2.37631 1.276042,-3.71745 1.276042,-1.34766 3.294272,-1.34766 1.321616,0 2.382814,0.63151 1.061198,0.63151 1.614584,1.76432 0.559896,1.12631 0.559896,2.5586 0,1.45182 -0.585937,2.59766 -0.585938,1.14583 -1.660157,1.73828 -1.07422,0.58594 -2.31771,0.58594 -1.347657,0 -2.408855,-0.65104 -1.061199,-0.65105 -1.608074,-1.77735 -0.546875,-1.1263 -0.546875,-2.38281 z m 1.302084,0.0195 q 0,1.72526 0.924479,2.72135 0.93099,0.98959 2.330731,0.98959 1.425781,0 2.34375,-1.00261 0.92448,-1.0026 0.92448,-2.84505 0,-1.16537 -0.397135,-2.03125 -0.390625,-0.8724 -1.152345,-1.34766 -0.755208,-0.48177 -1.699219,-0.48177 -1.341147,0 -2.311199,0.92448 -0.963542,0.91797 -0.963542,3.07292 z"
     id="text86"
     style="font-size:200px;font-family:Arial;stroke-width:0.0666667"
     aria-label="O" />
  <path
     stroke="none"
     fill="#000000"
     d="m 31.365375,141.20275 h -0.8 v -12.74267 h 0.8 z"
     id="path87"
     style="stroke-width:0.0666667" />
  <path
     stroke="none"
     fill="#000000"
     d="m 34.821377,141.20275 h -0.8 v -12.74267 h 0.8 z"
     id="path88"
     style="stroke-width:0.0666667" />
  <path
     d="m 55.153678,171.63161 v -9.54428 h 4.231773 q 1.276042,0 1.940105,0.26042 0.664063,0.2539 1.061198,0.90495 0.397136,0.65104 0.397136,1.4388 0,1.01562 -0.657553,1.71224 -0.657552,0.69661 -2.031251,0.88542 0.501303,0.24088 0.761719,0.47526 0.553386,0.50781 1.048178,1.26953 l 1.660157,2.59766 h -1.588542 l -1.263022,-1.98568 q -0.553386,-0.85938 -0.911459,-1.31511 -0.358073,-0.45573 -0.644531,-0.63802 -0.279948,-0.18229 -0.572917,-0.2539 -0.214844,-0.0456 -0.703125,-0.0456 h -1.464845 v 4.23829 z m 1.263021,-5.33204 h 2.714845 q 0.865886,0 1.354168,-0.17578 0.488281,-0.18229 0.742188,-0.57292 0.253906,-0.39713 0.253906,-0.85937 0,-0.67708 -0.494792,-1.11328 -0.488282,-0.4362 -1.54948,-0.4362 h -3.020835 z"
     id="text88"
     style="font-size:200px;font-family:Arial;stroke-width:0.0666667"
     aria-label="R" />
  <path
     stroke="none"
     fill="#000000"
     d="m 49.320051,150.51942 v -0.71467 l 0.515334,0.146 5.613336,9.66868 -0.692667,0.4 z"
     id="path89"
     style="stroke-width:0.0666667" />
  <path
     stroke="none"
     fill="#000000"
     d="m 49.835385,149.95075 -0.515334,-0.146 v -0.45133 l 16.242008,-9.378 0.384667,0.22933 v 0.45133 z"
     id="path90"
     style="stroke-width:0.0666667" />
  <path
     stroke="none"
     fill="#000000"
     d="m 65.946726,140.65608 v -0.45133 l 0.384667,-0.22933 16.249341,9.382 -6.66e-4,0.92467 z"
     id="path91"
     style="stroke-width:0.0666667" />
  <path
     d="m 61.405632,121.55617 q 0,-2.37631 1.276042,-3.71745 1.276042,-1.34766 3.294272,-1.34766 1.321616,0 2.382814,0.63151 1.061198,0.63151 1.614584,1.76432 0.559896,1.12631 0.559896,2.5586 0,1.45182 -0.585937,2.59766 -0.585938,1.14583 -1.660157,1.73828 -1.07422,0.58594 -2.31771,0.58594 -1.347657,0 -2.408855,-0.65104 -1.061199,-0.65105 -1.608074,-1.77735 -0.546875,-1.1263 -0.546875,-2.38281 z m 1.302084,0.0195 q 0,1.72526 0.924479,2.72135 0.93099,0.98959 2.330731,0.98959 1.425781,0 2.34375,-1.00261 0.92448,-1.0026 0.92448,-2.84505 0,-1.16537 -0.397135,-2.03125 -0.390625,-0.8724 -1.152345,-1.34766 -0.755208,-0.48177 -1.699219,-0.48177 -1.341147,0 -2.311199,0.92448 -0.963542,0.91797 -0.963542,3.07292 z m 9.492192,4.62891 v -9.54428 h 1.263021 v 3.91927 h 4.96094 v -3.91927 h 1.263022 v 9.54428 h -1.263022 v -4.4987 h -4.96094 v 4.4987 z"
     id="text91"
     style="font-size:200px;font-family:Arial;stroke-width:0.0666667"
     aria-label="OH" />
  <path
     stroke="none"
     fill="#000000"
     d="m 66.331393,139.97542 -0.384667,0.22933 -0.384667,-0.22933 -0.01533,-11.51534 h 0.8 z"
     id="path92"
     style="stroke-width:0.0666667" />
  <path
     d="m 95.433678,145.40461 v -9.54428 h 4.231773 q 1.276039,0 1.940109,0.26042 0.66406,0.2539 1.06119,0.90495 0.39714,0.65104 0.39714,1.4388 0,1.01562 -0.65755,1.71224 -0.65755,0.69661 -2.03125,0.88542 0.5013,0.24088 0.76172,0.47526 0.55338,0.50781 1.04817,1.26953 l 1.66016,2.59766 h -1.58854 l -1.26302,-1.98568 q -0.55339,-0.85938 -0.91146,-1.31511 -0.358076,-0.45573 -0.644534,-0.63802 -0.279948,-0.18229 -0.572917,-0.2539 -0.214844,-0.0456 -0.703125,-0.0456 h -1.464845 v 4.23829 z m 1.263021,-5.33204 h 2.714845 q 0.865886,0 1.354166,-0.17578 0.48828,-0.18229 0.74219,-0.57292 0.25391,-0.39713 0.25391,-0.85937 0,-0.67708 -0.4948,-1.11328 -0.48828,-0.4362 -1.549476,-0.4362 h -3.020835 z"
     id="text92"
     style="font-size:200px;font-family:Arial;stroke-width:0.0666667"
     aria-label="R" />
  <path
     stroke="none"
     fill="#000000"
     d="m 82.580068,150.28209 6.66e-4,-0.92467 9.562005,-5.54 0.4,0.69267 z"
     id="path93"
     style="stroke-width:0.0666667" />
  <path
     d="m 35.973209,171.63161 v -9.54428 h 1.263021 v 3.91927 h 4.96094 v -3.91927 h 1.263022 v 9.54428 H 42.19717 v -4.4987 h -4.96094 v 4.4987 z"
     id="text93"
     style="font-size:200px;font-family:Arial;stroke-width:0.0666667"
     aria-label="H" />
  <path
     stroke="none"
     fill="#000000"
     d="m 48.804717,149.95075 0.515334,-0.146 v 0.71467 l -5.443336,9.51267 -0.692667,-0.4 z"
     id="path94"
     style="stroke-width:0.0666667" />
  <path
     d="m 133.12553,128.74317 q 0,-2.37631 1.27604,-3.71745 1.27605,-1.34766 3.29428,-1.34766 1.32161,0 2.38281,0.63151 1.0612,0.63151 1.61458,1.76432 0.5599,1.12631 0.5599,2.5586 0,1.45182 -0.58594,2.59766 -0.58594,1.14583 -1.66015,1.73828 -1.07422,0.58594 -2.31771,0.58594 -1.34766,0 -2.40886,-0.65104 -1.0612,-0.65105 -1.60807,-1.77735 -0.54688,-1.1263 -0.54688,-2.38281 z m 1.30209,0.0195 q 0,1.72526 0.92448,2.72135 0.93099,0.98959 2.33073,0.98959 1.42578,0 2.34375,-1.00261 0.92448,-1.0026 0.92448,-2.84505 0,-1.16537 -0.39714,-2.03125 -0.39062,-0.8724 -1.15234,-1.34766 -0.75521,-0.48177 -1.69922,-0.48177 -1.34115,0 -2.3112,0.92448 -0.96354,0.91797 -0.96354,3.07292 z m 9.49219,4.62891 v -9.54428 h 1.26302 v 3.91927 h 4.96094 v -3.91927 h 1.26302 v 9.54428 h -1.26302 v -4.4987 h -4.96094 v 4.4987 z"
     id="text94"
     style="font-size:200px;font-family:Arial;stroke-width:0.0666667"
     aria-label="OH" />
  <path
     stroke="#000000"
     stroke-width="0.666667"
     fill="none"
     d="m 122.82209,120.09341 a 4.78667,4.78667 0 1 0 9.57334,0 4.78667,4.78667 0 1 0 -9.57334,0 z"
     id="path95" />
  <path
     stroke="none"
     fill="#000000"
     d="m 124.96476,119.73807 h 5.244 v 0.66667 h -5.244 z"
     id="path96"
     style="stroke-width:0.0666667" />
  <path
     stroke="none"
     fill="#000000"
     d="m 155.41344,141.75142 h -32.01335 v -0.8 h 32.01335 z"
     id="path97"
     style="stroke-width:0.0666667" />
  <path
     stroke="none"
     fill="#000000"
     d="m 129.13342,143.35142 h 32.01335 v 0.8 h -32.01335 z"
     id="path98"
     style="stroke-width:0.0666667" />
  <path
     stroke="none"
     fill="#000000"
     d="m 162.34677,141.75142 c 0,0 -7,0 -7,0 0,-1.33334 -1,-2.53334 -1,-2.53334 0,0 8,2.53334 8,2.53334 0,0 0,0 0,0"
     id="path99"
     style="stroke-width:0.0666667" />
  <path
     stroke="#000000"
     stroke-width="0.0666667"
     fill="none"
     d="m 162.34677,141.75142 c 0,0 -7,0 -7,0 0,-1.33334 -1,-2.53334 -1,-2.53334 0,0 8,2.53334 8,2.53334 0,0 0,0 0,0"
     id="path100" />
  <path
     stroke="none"
     fill="#000000"
     d="m 122.20009,143.35142 c 0,0 8,2.53333 8,2.53333 0,0 -1,-2 -1,-2.53333 0,0 -7,0 -7,0 0,0 0,0 0,0"
     id="path101"
     style="stroke-width:0.0666667" />
  <path
     stroke="#000000"
     stroke-width="0.0666667"
     fill="none"
     d="m 122.20009,143.35142 c 0,0 8,2.53333 8,2.53333 0,0 -1,-2 -1,-2.53333 0,0 -7,0 -7,0 0,0 0,0 0,0"
     id="path102" />
  <path
     stroke="#ff0000"
     stroke-width="0.8"
     fill="none"
     d="m 138.65343,136.80475 c 0,17.50667 -39.000021,64.00003 -89.253379,36.49335"
     id="path103" />
  <path
     stroke="none"
     fill="#ff0000"
     d="m 51.237385,172.02343 -1.837334,1.27467 -0.08267,2.23467 -4.654669,-4.82667 z"
     id="path104"
     style="stroke-width:0.0666667" />
  <path
     stroke="#ff0000"
     stroke-width="0.8"
     fill="none"
     d="m 35.093377,149.44009 c -0.0027,2.78133 2.253335,5.042 5.035336,5.04467 0.88,6.6e-4 1.758668,-0.234 2.520668,-0.67334"
     id="path105" />
  <path
     stroke="none"
     fill="#ff0000"
     d="m 37.617378,145.07809 c 0,0 -1.571334,5.77267 -1.571334,5.77267 0,0 -0.436,-1.10067 -0.952667,-1.41067 -0.516667,-0.31067 -1.673334,-0.16467 -1.673334,-0.16467 0,0 4.197335,-4.19733 4.197335,-4.19733 0,0 0,0 0,0"
     id="path106"
     style="stroke-width:0.0666667" />
  <path
     stroke="#ff0000"
     stroke-width="0.0666667"
     fill="none"
     d="m 37.617378,145.07809 c 0,0 -1.571334,5.77267 -1.571334,5.77267 0,0 -0.436,-1.10067 -0.952667,-1.41067 -0.516667,-0.31067 -1.673334,-0.16467 -1.673334,-0.16467 0,0 4.197335,-4.19733 4.197335,-4.19733 0,0 0,0 0,0"
     id="path107" />
  <path
     stroke="#ff0000"
     stroke-width="0.8"
     fill="none"
     d="m 20.968703,120.50007 c -2.922668,2.73067 -3.082668,7.32334 -0.357333,10.25134 1.351334,1.452 3.314002,2.30667 5.295336,2.30667"
     id="path108" />
  <path
     stroke="none"
     fill="#ff0000"
     d="m 25.906706,118.55141 c 0,0 -5.020003,3.70466 -5.020003,3.70466 0,0 0.340667,-1.14333 0.082,-1.756 -0.258,-0.61266 -1.328667,-1.19933 -1.328667,-1.19933 0,0 6.26667,-0.74933 6.26667,-0.74933 0,0 0,0 0,0"
     id="path109"
     style="stroke-width:0.0666667" />
  <path
     stroke="#ff0000"
     stroke-width="0.0666667"
     fill="none"
     d="m 25.906706,118.55141 c 0,0 -5.020003,3.70466 -5.020003,3.70466 0,0 0.340667,-1.14333 0.082,-1.756 -0.258,-0.61266 -1.328667,-1.19933 -1.328667,-1.19933 0,0 6.26667,-0.74933 6.26667,-0.74933 0,0 0,0 0,0"
     id="path110" />
  <path
     d="m 178.57371,155.00461 v -9.54428 h 1.26302 v 3.91927 h 4.96094 v -3.91927 h 1.26302 v 9.54428 h -1.26302 v -4.4987 h -4.96094 v 4.4987 z"
     id="text110"
     style="font-size:200px;font-family:Arial;stroke-width:0.0666667"
     aria-label="H" />
  <path
     stroke="none"
     fill="#000000"
     d="m 188.97079,146.42675 -0.4,-0.69266 9.99134,-5.75134 0.38466,0.222 -0.007,0.44733 z"
     id="path111"
     style="stroke-width:0.0666667" />
  <path
     stroke="none"
     fill="#000000"
     d="m 198.94013,140.65208 0.007,-0.44733 0.38467,-0.22933 16.24201,9.378 v 0.45133 l -0.386,0.22867 z"
     id="path112"
     style="stroke-width:0.0666667" />
  <path
     stroke="none"
     fill="#000000"
     d="m 202.20279,138.55608 0.4,-0.69266 13.17068,7.60467 -0.4,0.69266 z"
     id="path113"
     style="stroke-width:0.0666667" />
  <path
     d="m 194.40553,121.55617 q 0,-2.37631 1.27604,-3.71745 1.27605,-1.34766 3.29428,-1.34766 1.32161,0 2.38281,0.63151 1.0612,0.63151 1.61458,1.76432 0.5599,1.12631 0.5599,2.5586 0,1.45182 -0.58594,2.59766 -0.58594,1.14583 -1.66015,1.73828 -1.07422,0.58594 -2.31771,0.58594 -1.34766,0 -2.40886,-0.65104 -1.0612,-0.65105 -1.60807,-1.77735 -0.54688,-1.1263 -0.54688,-2.38281 z m 1.30209,0.0195 q 0,1.72526 0.92448,2.72135 0.93099,0.98959 2.33073,0.98959 1.42578,0 2.34375,-1.00261 0.92448,-1.0026 0.92448,-2.84505 0,-1.16537 -0.39714,-2.03125 -0.39062,-0.8724 -1.15234,-1.34766 -0.75521,-0.48177 -1.69922,-0.48177 -1.34115,0 -2.3112,0.92448 -0.96354,0.91797 -0.96354,3.07292 z"
     id="text113"
     style="font-size:200px;font-family:Arial;stroke-width:0.0666667"
     aria-label="O" />
  <path
     stroke="none"
     fill="#000000"
     d="m 199.33146,139.97542 -0.38467,0.22933 -0.38466,-0.222 -0.0153,-11.52267 h 0.8 z"
     id="path114"
     style="stroke-width:0.0666667" />
  <path
     d="m 211.80718,174.20461 v -9.54428 h 4.23177 q 1.27604,0 1.94011,0.26042 0.66406,0.2539 1.06119,0.90495 0.39714,0.65104 0.39714,1.4388 0,1.01562 -0.65755,1.71224 -0.65755,0.69661 -2.03125,0.88542 0.5013,0.24088 0.76172,0.47526 0.55338,0.50781 1.04817,1.26953 l 1.66016,2.59766 h -1.58854 l -1.26302,-1.98568 q -0.55339,-0.85938 -0.91146,-1.31511 -0.35808,-0.45573 -0.64453,-0.63802 -0.27995,-0.18229 -0.57292,-0.2539 -0.21484,-0.0456 -0.70313,-0.0456 h -1.46484 v 4.23829 z m 1.26302,-5.33204 h 2.71484 q 0.86589,0 1.35417,-0.17578 0.48828,-0.18229 0.74219,-0.57292 0.25391,-0.39713 0.25391,-0.85937 0,-0.67708 -0.4948,-1.11328 -0.48828,-0.4362 -1.54948,-0.4362 h -3.02083 z"
     id="text114"
     style="font-size:200px;font-family:Arial;stroke-width:0.0666667"
     aria-label="R" />
  <path
     stroke="none"
     fill="#000000"
     d="m 215.18747,150.03342 0.386,-0.22867 0.386,0.22867 0.014,12.64934 h -0.8 z"
     id="path115"
     style="stroke-width:0.0666667" />
  <path
     stroke="none"
     fill="#000000"
     d="m 215.95947,150.03342 -0.386,-0.22867 v -0.45133 l 16.24201,-9.378 0.38466,0.22933 v 0.45133 z"
     id="path116"
     style="stroke-width:0.0666667" />
  <path
     stroke="none"
     fill="#000000"
     d="m 232.20014,140.65608 v -0.45133 l 0.38467,-0.22933 16.24934,9.382 -6.7e-4,0.92467 z"
     id="path117"
     style="stroke-width:0.0666667" />
  <path
     d="m 227.65853,121.55617 q 0,-2.37631 1.27604,-3.71745 1.27605,-1.34766 3.29428,-1.34766 1.32161,0 2.38281,0.63151 1.0612,0.63151 1.61458,1.76432 0.5599,1.12631 0.5599,2.5586 0,1.45182 -0.58594,2.59766 -0.58594,1.14583 -1.66015,1.73828 -1.07422,0.58594 -2.31771,0.58594 -1.34766,0 -2.40886,-0.65104 -1.0612,-0.65105 -1.60807,-1.77735 -0.54688,-1.1263 -0.54688,-2.38281 z m 1.30209,0.0195 q 0,1.72526 0.92448,2.72135 0.93099,0.98959 2.33073,0.98959 1.42578,0 2.34375,-1.00261 0.92448,-1.0026 0.92448,-2.84505 0,-1.16537 -0.39714,-2.03125 -0.39062,-0.8724 -1.15234,-1.34766 -0.75521,-0.48177 -1.69922,-0.48177 -1.34115,0 -2.3112,0.92448 -0.96354,0.91797 -0.96354,3.07292 z m 9.49219,4.62891 v -9.54428 h 1.26302 v 3.91927 h 4.96094 v -3.91927 h 1.26302 v 9.54428 h -1.26302 v -4.4987 h -4.96094 v 4.4987 z"
     id="text117"
     style="font-size:200px;font-family:Arial;stroke-width:0.0666667"
     aria-label="OH" />
  <path
     stroke="none"
     fill="#000000"
     d="m 232.58481,139.97542 -0.38467,0.22933 -0.38466,-0.22933 -0.0153,-11.51534 h 0.8 z"
     id="path118"
     style="stroke-width:0.0666667" />
  <path
     d="m 261.68718,145.40461 v -9.54428 h 4.23177 q 1.27604,0 1.94011,0.26042 0.66406,0.2539 1.06119,0.90495 0.39714,0.65104 0.39714,1.4388 0,1.01562 -0.65755,1.71224 -0.65755,0.69661 -2.03125,0.88542 0.5013,0.24088 0.76172,0.47526 0.55338,0.50781 1.04817,1.26953 l 1.66016,2.59766 h -1.58854 l -1.26302,-1.98568 q -0.55339,-0.85938 -0.91146,-1.31511 -0.35808,-0.45573 -0.64453,-0.63802 -0.27995,-0.18229 -0.57292,-0.2539 -0.21484,-0.0456 -0.70313,-0.0456 h -1.46484 v 4.23829 z m 1.26302,-5.33204 h 2.71484 q 0.86589,0 1.35417,-0.17578 0.48828,-0.18229 0.74219,-0.57292 0.25391,-0.39713 0.25391,-0.85937 0,-0.67708 -0.4948,-1.11328 -0.48828,-0.4362 -1.54948,-0.4362 h -3.02083 z"
     id="text118"
     style="font-size:200px;font-family:Arial;stroke-width:0.0666667"
     aria-label="R" />
  <path
     stroke="none"
     fill="#000000"
     d="m 248.83348,150.28209 6.7e-4,-0.92467 9.56201,-5.54 0.4,0.69267 z"
     id="path119"
     style="stroke-width:0.0666667" />
  <path
     stroke="#000000"
     stroke-width="0.666667"
     fill="none"
     d="m 182.80878,114.84007 a 4.78667,4.78667 0 1 0 9.57334,0 4.78667,4.78667 0 1 0 -9.57334,0 z"
     id="path120" />
  <path
     stroke="none"
     fill="#000000"
     d="m 184.95145,114.48474 h 5.244 v 0.66666 h -5.244 z"
     id="path121"
     style="stroke-width:0.0666667" />
  <path
     stroke="#ff0000"
     stroke-width="0.8"
     fill="none"
     d="m 191.22679,122.63007 c -3.732,1.00134 -5.94867,4.84334 -4.94734,8.57468 0.452,1.68666 1.55867,3.18533 3.03667,4.114"
     id="path122" />
  <path
     stroke="none"
     fill="#ff0000"
     d="m 194.85346,136.15208 c 0,0 -6.63334,0.696 -6.63334,0.696 0,0 0.96267,-0.808 1.096,-1.52933 0.13333,-0.72134 -0.486,-1.768 -0.486,-1.768 0,0 6.02334,2.60133 6.02334,2.60133 0,0 0,0 0,0"
     id="path123"
     style="stroke-width:0.0666667" />
  <path
     stroke="#ff0000"
     stroke-width="0.0666667"
     fill="none"
     d="m 194.85346,136.15208 c 0,0 -6.63334,0.696 -6.63334,0.696 0,0 0.96267,-0.808 1.096,-1.52933 0.13333,-0.72134 -0.486,-1.768 -0.486,-1.768 0,0 6.02334,2.60133 6.02334,2.60133 0,0 0,0 0,0"
     id="path124" />
  <path
     stroke="#ff0000"
     stroke-width="0.8"
     fill="none"
     d="m 220.11614,136.98008 c -1.98867,-2.84533 -5.90801,-3.536 -8.74667,-1.54267 -1.19734,0.84067 -2.08467,2.11201 -2.46267,3.52734"
     id="path125" />
  <path
     stroke="none"
     fill="#ff0000"
     d="m 221.04014,142.21808 c 0,0 -2.61867,-5.656 -2.61867,-5.656 0,0 1.04533,0.55533 1.69467,0.418 0.65,-0.13733 1.43133,-1.07933 1.43133,-1.07933 0,0 -0.50733,6.31733 -0.50733,6.31733 0,0 0,0 0,0"
     id="path126"
     style="stroke-width:0.0666667" />
  <path
     stroke="#ff0000"
     stroke-width="0.0666667"
     fill="none"
     d="m 221.04014,142.21808 c 0,0 -2.61867,-5.656 -2.61867,-5.656 0,0 1.04533,0.55533 1.69467,0.418 0.65,-0.13733 1.43133,-1.07933 1.43133,-1.07933 0,0 -0.50733,6.31733 -0.50733,6.31733 0,0 0,0 0,0"
     id="path127" />
  <path
     stroke="#ff0000"
     stroke-width="0.8"
     fill="none"
     d="m 221.09214,122.99274 c -2.43267,2.69667 -2.21467,6.856 0.48733,9.28334 1.81,1.62667 4.54267,2.12267 6.81067,1.23533"
     id="path128" />
  <path
     stroke="none"
     fill="#ff0000"
     d="m 225.98681,120.81807 c 0,0 -4.90601,3.95067 -4.90601,3.95067 0,0 0.29934,-1.16267 0.0113,-1.776 -0.288,-0.61267 -1.38734,-1.154 -1.38734,-1.154 0,0 6.28201,-1.02067 6.28201,-1.02067 0,0 0,0 0,0"
     id="path129"
     style="stroke-width:0.0666667" />
  <path
     stroke="#ff0000"
     stroke-width="0.0666667"
     fill="none"
     d="m 225.98681,120.81807 c 0,0 -4.90601,3.95067 -4.90601,3.95067 0,0 0.29934,-1.16267 0.0113,-1.776 -0.288,-0.61267 -1.38734,-1.154 -1.38734,-1.154 0,0 6.28201,-1.02067 6.28201,-1.02067 0,0 0,0 0,0"
     id="path130" />
  <path
     stroke="none"
     fill="#000000"
     d="m 315.58685,141.75142 h -32.02668 v -0.8 h 32.02668 z"
     id="path131"
     style="stroke-width:0.0666667" />
  <path
     stroke="none"
     fill="#000000"
     d="m 289.2935,143.35142 h 32.02669 v 0.8 H 289.2935 Z"
     id="path132"
     style="stroke-width:0.0666667" />
  <path
     stroke="none"
     fill="#000000"
     d="m 322.52019,141.75142 c 0,0 -7.00001,0 -7.00001,0 0,-1.33334 -1,-2.53334 -1,-2.53334 0,0 8.00001,2.53334 8.00001,2.53334 0,0 0,0 0,0"
     id="path133"
     style="stroke-width:0.0666667" />
  <path
     stroke="#000000"
     stroke-width="0.0666667"
     fill="none"
     d="m 322.52019,141.75142 c 0,0 -7.00001,0 -7.00001,0 0,-1.33334 -1,-2.53334 -1,-2.53334 0,0 8.00001,2.53334 8.00001,2.53334 0,0 0,0 0,0"
     id="path134" />
  <path
     stroke="none"
     fill="#000000"
     d="m 282.36017,143.35142 c 0,0 8,2.53333 8,2.53333 0,0 -1,-2 -1,-2.53333 0,0 -7,0 -7,0 0,0 0,0 0,0"
     id="path135"
     style="stroke-width:0.0666667" />
  <path
     stroke="#000000"
     stroke-width="0.0666667"
     fill="none"
     d="m 282.36017,143.35142 c 0,0 8,2.53333 8,2.53333 0,0 -1,-2 -1,-2.53333 0,0 -7,0 -7,0 0,0 0,0 0,0"
     id="path136" />
  <path
     d="m 341.31971,155.00461 v -9.54428 h 1.26302 v 3.91927 h 4.96094 v -3.91927 h 1.26302 v 9.54428 h -1.26302 v -4.4987 h -4.96094 v 4.4987 z"
     id="text136"
     style="font-size:200px;font-family:Arial;stroke-width:0.0666667"
     aria-label="H" />
  <path
     stroke="none"
     fill="#000000"
     d="m 351.71754,146.42675 -0.4,-0.69266 10.37,-6.00601 -6.7e-4,0.924 z"
     id="path137"
     style="stroke-width:0.0666667" />
  <path
     stroke="none"
     fill="#000000"
     d="m 361.68687,140.65208 6.7e-4,-0.924 16.63268,9.62534 v 0.45133 l -0.386,0.22867 z"
     id="path138"
     style="stroke-width:0.0666667" />
  <path
     d="m 357.15253,121.55617 q 0,-2.37631 1.27604,-3.71745 1.27605,-1.34766 3.29428,-1.34766 1.32161,0 2.38281,0.63151 1.0612,0.63151 1.61458,1.76432 0.5599,1.12631 0.5599,2.5586 0,1.45182 -0.58594,2.59766 -0.58594,1.14583 -1.66015,1.73828 -1.07422,0.58594 -2.31771,0.58594 -1.34766,0 -2.40886,-0.65104 -1.0612,-0.65105 -1.60807,-1.77735 -0.54688,-1.1263 -0.54688,-2.38281 z m 1.30209,0.0195 q 0,1.72526 0.92448,2.72135 0.93099,0.98959 2.33073,0.98959 1.42578,0 2.34375,-1.00261 0.92448,-1.0026 0.92448,-2.84505 0,-1.16537 -0.39714,-2.03125 -0.39062,-0.8724 -1.15234,-1.34766 -0.75521,-0.48177 -1.69922,-0.48177 -1.34115,0 -2.3112,0.92448 -0.96354,0.91797 -0.96354,3.07292 z"
     id="text138"
     style="font-size:200px;font-family:Arial;stroke-width:0.0666667"
     aria-label="O" />
  <path
     stroke="none"
     fill="#000000"
     d="m 360.36554,141.20275 h -0.8 v -12.74267 h 0.8 z"
     id="path139"
     style="stroke-width:0.0666667" />
  <path
     stroke="none"
     fill="#000000"
     d="m 363.82154,141.20275 h -0.8 v -12.74267 h 0.8 z"
     id="path140"
     style="stroke-width:0.0666667" />
  <path
     d="m 374.55418,174.20461 v -9.54428 h 4.23177 q 1.27604,0 1.94011,0.26042 0.66406,0.2539 1.06119,0.90495 0.39714,0.65104 0.39714,1.4388 0,1.01562 -0.65755,1.71224 -0.65755,0.69661 -2.03125,0.88542 0.5013,0.24088 0.76172,0.47526 0.55338,0.50781 1.04817,1.26953 l 1.66016,2.59766 h -1.58854 l -1.26302,-1.98568 q -0.55339,-0.85938 -0.91146,-1.31511 -0.35808,-0.45573 -0.64453,-0.63802 -0.27995,-0.18229 -0.57292,-0.2539 -0.21484,-0.0456 -0.70313,-0.0456 h -1.46484 v 4.23829 z m 1.26302,-5.33204 h 2.71484 q 0.86589,0 1.35417,-0.17578 0.48828,-0.18229 0.74219,-0.57292 0.25391,-0.39713 0.25391,-0.85937 0,-0.67708 -0.4948,-1.11328 -0.48828,-0.4362 -1.54948,-0.4362 h -3.02083 z"
     id="text140"
     style="font-size:200px;font-family:Arial;stroke-width:0.0666667"
     aria-label="R" />
  <path
     stroke="none"
     fill="#000000"
     d="m 377.93422,150.03342 0.386,-0.22867 0.386,0.22867 0.014,12.64934 h -0.8 z"
     id="path141"
     style="stroke-width:0.0666667" />
  <path
     stroke="none"
     fill="#000000"
     d="m 378.70622,150.03342 -0.386,-0.22867 v -0.45133 l 16.62667,-9.622 v 0.92466 z"
     id="path142"
     style="stroke-width:0.0666667" />
  <path
     stroke="none"
     fill="#000000"
     d="m 381.97622,152.14609 -0.4,-0.69267 13.17067,-7.60467 0.4,0.69267 z"
     id="path143"
     style="stroke-width:0.0666667" />
  <path
     stroke="none"
     fill="#000000"
     d="m 394.94689,140.65608 v -0.92466 l 16.63401,9.626 -6.7e-4,0.92467 z"
     id="path144"
     style="stroke-width:0.0666667" />
  <path
     d="m 424.43418,145.40461 v -9.54428 h 4.23177 q 1.27604,0 1.94011,0.26042 0.66406,0.2539 1.06119,0.90495 0.39714,0.65104 0.39714,1.4388 0,1.01562 -0.65755,1.71224 -0.65755,0.69661 -2.03125,0.88542 0.5013,0.24088 0.76172,0.47526 0.55338,0.50781 1.04817,1.26953 l 1.66016,2.59766 h -1.58854 l -1.26302,-1.98568 q -0.55339,-0.85938 -0.91146,-1.31511 -0.35808,-0.45573 -0.64453,-0.63802 -0.27995,-0.18229 -0.57292,-0.2539 -0.21484,-0.0456 -0.70313,-0.0456 h -1.46484 v 4.23829 z m 1.26302,-5.33204 h 2.71484 q 0.86589,0 1.35417,-0.17578 0.48828,-0.18229 0.74219,-0.57292 0.25391,-0.39713 0.25391,-0.85937 0,-0.67708 -0.4948,-1.11328 -0.48828,-0.4362 -1.54948,-0.4362 h -3.02083 z"
     id="text144"
     style="font-size:200px;font-family:Arial;stroke-width:0.0666667"
     aria-label="R" />
  <path
     stroke="none"
     fill="#000000"
     d="m 411.58023,150.28209 6.7e-4,-0.92467 9.562,-5.54 0.4,0.69267 z"
     id="path145"
     style="stroke-width:0.0666667" />
  <path
     d="m 433.79253,174.74317 q 0,-2.37631 1.27604,-3.71745 1.27605,-1.34766 3.29428,-1.34766 1.32161,0 2.38281,0.63151 1.0612,0.63151 1.61458,1.76432 0.5599,1.12631 0.5599,2.5586 0,1.45182 -0.58594,2.59766 -0.58594,1.14583 -1.66015,1.73828 -1.07422,0.58594 -2.31771,0.58594 -1.34766,0 -2.40886,-0.65104 -1.0612,-0.65105 -1.60807,-1.77735 -0.54688,-1.1263 -0.54688,-2.38281 z m 1.30209,0.0195 q 0,1.72526 0.92448,2.72135 0.93099,0.98959 2.33073,0.98959 1.42578,0 2.34375,-1.00261 0.92448,-1.0026 0.92448,-2.84505 0,-1.16537 -0.39714,-2.03125 -0.39062,-0.8724 -1.15234,-1.34766 -0.75521,-0.48177 -1.69922,-0.48177 -1.34115,0 -2.3112,0.92448 -0.96354,0.91797 -0.96354,3.07292 z m 9.49219,4.62891 v -9.54428 h 1.26302 v 3.91927 h 4.96094 v -3.91927 h 1.26302 v 9.54428 h -1.26302 v -4.4987 h -4.96094 v 4.4987 z"
     id="text148"
     style="font-size:200px;font-family:Arial;stroke-width:0.0666667"
     aria-label="OH" />
  <path
     stroke="#000000"
     stroke-width="0.666667"
     fill="none"
     d="m 423.4889,166.09343 a 4.78667,4.78667 0 1 0 9.57334,0 4.78667,4.78667 0 1 0 -9.57334,0 z"
     id="path148" />
  <path
     stroke="none"
     fill="#000000"
     d="m 425.63157,165.7381 h 5.24401 v 0.66666 h -5.24401 z"
     id="path149"
     style="stroke-width:0.0666667" />
  <path
     style="fill:none;stroke:#000000;stroke-width:1px;stroke-linecap:butt;stroke-linejoin:miter;stroke-opacity:1"
     d="M 6.549944,100.15572 H 560.5704"
     id="path83" />
</svg>
