<?xml version="1.0" encoding="UTF-8" standalone="no"?>
<svg xmlns="http://www.w3.org/2000/svg" width="403" height="354">
  <path d="m 106.25,311.25 -87.5,-37.5 0,-250 87.5,37.5" fill="none" stroke="#000" stroke-width="2.5"/>
  <path d="m 18.75,23.75 250,0 87.5,37.5" fill="none" stroke="#000" stroke-width="2.5"/>
  <g fill="none" stroke="#8c8c8c" stroke-width="2.5">
    <path d="m 268.75,23.75 0,250 87.5,37.5"/>
    <path d="m 268.75,273.75 -250,0"/>
    <path d="m 268.75,23.75 -162.5,287.5"/>
    <path d="M 18.75,273.75 356.25,61.25"/>
    <path d="m 18.75,23.75 337.5,287.5"/>
    <path d="M 268.75,273.75 106.25,61.25"/>
  </g>
  <rect width="250" height="250" x="106.25" y="61.25" fill="none" stroke="#000" stroke-width="2.5" stroke-linecap="round"/>
  <path d="m 200,6.25 a 6.25,6.25 0 1 1 -12.5,0 6.25,6.25 0 1 1 12.5,0 z" transform="translate(-6.25,161.25)" fill="#8c8c8c"/>
  <path d="m 200,6.25 a 6.25,6.25 0 1 1 -12.5,0 6.25,6.25 0 1 1 12.5,0 z" transform="translate(-175,17.5)"/>
  <path d="m 200,6.25 a 6.25,6.25 0 1 1 -12.5,0 6.25,6.25 0 1 1 12.5,0 z" transform="translate(-87.5,55)"/>
  <path d="m 200,6.25 a 6.25,6.25 0 1 1 -12.5,0 6.25,6.25 0 1 1 12.5,0 z" transform="translate(75,17.5)"/>
  <path d="m 200,6.25 a 6.25,6.25 0 1 1 -12.5,0 6.25,6.25 0 1 1 12.5,0 z" transform="translate(162.5,55)"/>
  <path d="m 200,6.25 a 6.25,6.25 0 1 1 -12.5,0 6.25,6.25 0 1 1 12.5,0 z" transform="translate(162.5,305)"/>
  <path d="m 200,6.25 a 6.25,6.25 0 1 1 -12.5,0 6.25,6.25 0 1 1 12.5,0 z" transform="translate(75,267.5)" fill="#8c8c8c"/>
  <path d="m 200,6.25 a 6.25,6.25 0 1 1 -12.5,0 6.25,6.25 0 1 1 12.5,0 z" transform="translate(-175,267.5)"/>
  <path d="m 200,6.25 a 6.25,6.25 0 1 1 -12.5,0 6.25,6.25 0 1 1 12.5,0 z" transform="translate(-87.5,305)"/>
  <text x="219.90234" y="346.15234" xml:space="preserve" style="text-align:start;line-height:125%" font-size="40px" font-weight="bold" font-family="sans-serif"><tspan x="219.90234" y="346.15234">a</tspan></text>
  <text x="368.18359" y="196.15234" xml:space="preserve" style="text-align:start;line-height:125%" font-size="40px" font-weight="bold" font-family="sans-serif"><tspan x="368.18359" y="196.15234">a</tspan></text>
  <text x="30.683594" y="321.15234" xml:space="preserve" style="text-align:start;line-height:125%" font-size="40px" font-weight="bold" font-family="sans-serif"><tspan x="30.683594" y="321.15234">a</tspan></text>
</svg>
