<?xml version="1.0" encoding="UTF-8"?>
<svg xmlns="http://www.w3.org/2000/svg" xmlns:xlink="http://www.w3.org/1999/xlink" width="1200" height="900"  version="1.1" text-anchor="middle" font-size="30">

<g stroke="none" stroke-width="4" >
  <line x1="0" y1="900" x2="1200" y2="900" />
  <line x1="1200" y1="0" x2="1200" y2="900" />
</g>

<defs>

<symbol overflow="visible" id="Hline" >
<line x1="0" y1="0" x2="1000" y2="0" stroke-width="1" />
</symbol>

<symbol overflow="visible" id="Hline4" >
<line x1="0" y1="0" x2="1000" y2="0" stroke-width="1" />
<line x1="0" y1="20" x2="1000" y2="20" stroke-width="1" />
<line x1="0" y1="40" x2="1000" y2="40" stroke-width="1" />
<line x1="0" y1="60" x2="1000" y2="60" stroke-width="1" />
</symbol>

<symbol overflow="visible" id="Vline" >
<line x1="0" y1="0" x2="0" y2="800" stroke="black" stroke-width="1" />
</symbol>

</defs>

<g transform="translate(50, 10)" >

<g stroke="black" >
  <use xlink:href="#Hline" x="100" y="15" stroke="black" />  900
  <use xlink:href="#Hline" x="100" y="115" stroke="black" /> 800
  <use xlink:href="#Hline" x="100" y="215" stroke="black" /> 700
  <use xlink:href="#Hline" x="100" y="315" stroke="black" /> 600
  <use xlink:href="#Hline" x="100" y="415" stroke="black" /> 500
  <use xlink:href="#Hline" x="100" y="515" stroke="black" /> 400
  <use xlink:href="#Hline" x="100" y="615" stroke="black" /> 300
  <use xlink:href="#Hline" x="100" y="715" stroke="black" /> 200
</g>
<g stroke="grey" >
  <use xlink:href="#Hline4" x="100" y="35" />
  <use xlink:href="#Hline4" x="100" y="135" />
  <use xlink:href="#Hline4" x="100" y="235" />
  <use xlink:href="#Hline4" x="100" y="335" />
  <use xlink:href="#Hline4" x="100" y="435" />
  <use xlink:href="#Hline4" x="100" y="535" />
  <use xlink:href="#Hline4" x="100" y="635" />
  <use xlink:href="#Hline4" x="100" y="735" />
</g>

  <use xlink:href="#Vline" x="100" y="0" />
  <use xlink:href="#Vline" x="225" y="0" />
  <use xlink:href="#Vline" x="350" y="0" />
  <use xlink:href="#Vline" x="475" y="0" />
  <use xlink:href="#Vline" x="600" y="0" />
  <use xlink:href="#Vline" x="725" y="0" />
  <use xlink:href="#Vline" x="850" y="0" />
  <use xlink:href="#Vline" x="975" y="0" />
  <use xlink:href="#Vline" x="1100" y="0" />

<g font-size="50" fill="black" >
  <text x="50" y="125" stroke="none" >800</text>
  <text x="50" y="325" stroke="none" >600</text>
  <text x="30" y="425" stroke="none" fill="blue" >mV ↑</text>
  <text x="50" y="525" stroke="none" >400</text>
  <text x="50" y="725" stroke="none" >200</text>
  <switch text-anchor="middle" >
    <g  systemLanguage="de" >
      <text x="100" y="835" stroke="none" >0,0</text>
      <text x="350" y="835" stroke="none" >0,5</text>
      <text x="600" y="835" stroke="none" >1,0</text>
      <text x="850" y="835" stroke="none" >1,5</text>
      <text x="1100" y="835" stroke="none" >2,0</text>
      <text x="600" y="880" stroke="none" fill="blue" >→ Titrationkoordinat →</text>
    </g>
    <g  systemLanguage="fr" >
      <text x="100" y="835" stroke="none" >0,0</text>
      <text x="350" y="835" stroke="none" >0,5</text>
      <text x="600" y="835" stroke="none" >1,0</text>
      <text x="850" y="835" stroke="none" >1,5</text>
      <text x="1100" y="835" stroke="none" >2,0</text>
      <text x="600" y="880" stroke="none" fill="blue" >→ Coordonnée de la titration →</text>
    </g>
    <g  systemLanguage="nl" >
      <text x="100" y="835" stroke="none" >0,0</text>
      <text x="350" y="835" stroke="none" >0,5</text>
      <text x="600" y="835" stroke="none" >1,0</text>
      <text x="850" y="835" stroke="none" >1,5</text>
      <text x="1100" y="835" stroke="none" >2,0</text>
      <text x="600" y="880" stroke="none" fill="blue" >→ titratie-coördinaat →</text>
    </g>
    <g >
      <text x="100" y="835" stroke="none" >0.0</text>
      <text x="350" y="835" stroke="none" >0.5</text>
      <text x="600" y="835" stroke="none" >1.0</text>
      <text x="850" y="835" stroke="none" >1.5</text>
      <text x="1090" y="835" stroke="none" >2.0</text>
      <text x="600" y="880" stroke="none" fill="blue" >→ titration coordinate →</text>
    </g>
  </switch>
</g>
Voor eq
<g fill="none" stroke="none" >
<circle cx="105.0" cy="27.1" r="4"  />
<circle cx="110.0" cy="45.1" r="4"  />
<circle cx="125.0" cy="69.4" r="4"  />
<circle cx="150.0" cy="88.6" r="4"  />
<circle cx="175.0" cy="100.5" r="4"  />
<circle cx="200.0" cy="109.4" r="4"  />
<circle cx="225.0" cy="116.8" r="4"  />
<circle cx="250.0" cy="123.3" r="4"  />
<circle cx="275.0" cy="129.1" r="4"  />
<circle cx="300.0" cy="134.6" r="4"  />
<circle cx="325.0" cy="139.8" r="4"  />
<circle cx="350.0" cy="145.0" r="4"  />
<circle cx="375.0" cy="150.2" r="4"  />
<circle cx="400.0" cy="155.4" r="4"  />
<circle cx="425.0" cy="160.9" r="4"  />
<circle cx="450.0" cy="166.7" r="4"  />
<circle cx="475.0" cy="173.2" r="4"  />
<circle cx="500.0" cy="180.6" r="4"  />
<circle cx="525.0" cy="189.5" r="4"  />
<circle cx="550.0" cy="201.4" r="4"  />
<circle cx="560.0" cy="207.7" r="4"  />
<circle cx="570.0" cy="215.6" r="4"  />
<circle cx="580.0" cy="226.6" r="4"  />
<circle cx="585.0" cy="234.2" r="4"  />
<circle cx="590.0" cy="244.9" r="4"  />
<circle cx="595.0" cy="262.9" r="4"  />
</g>

na eq
<g fill="none" stroke="none" >
<circle cx="605.0" cy="705.9" r="4"  />
<circle cx="610.0" cy="714.8" r="4"  />
<circle cx="615.0" cy="720.0" r="4"  />
<circle cx="620.0" cy="723.7" r="4"  />
<circle cx="625.0" cy="726.6" r="4"  />
<circle cx="650.0" cy="735.5" r="4"  />
<circle cx="675.0" cy="740.7" r="4"  />
<circle cx="700.0" cy="744.3" r="4"  />
<circle cx="725.0" cy="747.2" r="4"  />
<circle cx="750.0" cy="749.5" r="4"  />
<circle cx="775.0" cy="751.5" r="4"  />
<circle cx="800.0" cy="753.2" r="4"  />
<circle cx="825.0" cy="754.8" r="4"  />
<circle cx="850.0" cy="756.1" r="4"  />
<circle cx="875.0" cy="757.3" r="4"  />
<circle cx="900.0" cy="758.4" r="4"  />
<circle cx="925.0" cy="759.5" r="4"  />
<circle cx="950.0" cy="760.4" r="4"  />
<circle cx="975.0" cy="761.3" r="4"  />
<circle cx="1000.0" cy="762.1" r="4"  />
<circle cx="1025.0" cy="762.9" r="4"  />
<circle cx="1050.0" cy="763.6" r="4"  />
<circle cx="1075.0" cy="764.3" r="4"  />
<circle cx="1100.0" cy="765.0" r="4"  />
</g>

curve
<g stroke="black" stroke-width="4" fill="none">
  <path d="M 105,27.1 Q 115,92 225,116.8 " />
  <path d="M 225,116.8 Q 287.5,133 350.0,145.0 " />
  <path d="M 350.0,145.0 Q 412.5,157 475.0,173.2 " />
  <path d="M 475.0,173.2 Q 592,205 595.0,262.9 " />

  <line x1="595.0" y1="262.9" x2="605.0" y2="705.9" />

  <path d="M 605.0,705.9 Q 617,737 725,747.2 " />
  <path d="M 725,747.2 Q 790,753 850,756.1 " />
  <path d="M 850,756.1 Q 915,759 975,761.3 " />
  <path d="M 975,761.3 Q 1040,763.4 1100.0,765.0 " />
</g>

</g>
</svg>