<?xml version="1.0" encoding="UTF-8"?>
<svg xmlns="http://www.w3.org/2000/svg" xmlns:xlink="http://www.w3.org/1999/xlink" width="288pt" height="59pt" viewBox="0 0 288 59" version="1.1">
<g id="surface0">
<path style="fill: none; stroke-width: 0.750492; stroke-linecap: round; stroke-linejoin: round; stroke: rgb(0%,0%,0%); opacity: 1;stroke-miterlimit: 10;" d="M 9.160034 39.335526 L 26.337997 49.25679 " transform="matrix(1,0,0,1,0,0)"/>
<path style="fill: none; stroke-width: 0.750492; stroke-linecap: butt; stroke-linejoin: round; stroke: rgb(0%,0%,0%); opacity: 1;stroke-miterlimit: 10;" d="M 39.116623 36.676361 L 26.233154 44.11731 " transform="matrix(1,0,0,1,0,0)"/>
<path style="fill: none; stroke-width: 0.750492; stroke-linecap: round; stroke-linejoin: round; stroke: rgb(0%,0%,0%); opacity: 1;stroke-miterlimit: 10;" d="M 43.515945 39.335526 L 26.337997 49.25679 " transform="matrix(1,0,0,1,0,0)"/>
<path style="fill: none; stroke-width: 0.750492; stroke-linecap: round; stroke-linejoin: round; stroke: rgb(0%,0%,0%); opacity: 1;stroke-miterlimit: 10;" d="M 9.160034 19.521362 L 26.337997 9.600098 " transform="matrix(1,0,0,1,0,0)"/>
<path style="fill: none; stroke-width: 0.750492; stroke-linecap: butt; stroke-linejoin: round; stroke: rgb(0%,0%,0%); opacity: 1;stroke-miterlimit: 10;" d="M 13.662994 21.998123 L 13.662994 36.858765 " transform="matrix(1,0,0,1,0,0)"/>
<path style="fill: none; stroke-width: 0.750492; stroke-linecap: round; stroke-linejoin: round; stroke: rgb(0%,0%,0%); opacity: 1;stroke-miterlimit: 10;" d="M 9.160034 19.521362 L 9.160034 39.335526 " transform="matrix(1,0,0,1,0,0)"/>
<path style="fill: none; stroke-width: 0.750492; stroke-linecap: round; stroke-linejoin: round; stroke: rgb(0%,0%,0%); opacity: 1;stroke-miterlimit: 10;" d="M 43.515945 19.521362 L 43.515945 39.335526 " transform="matrix(1,0,0,1,0,0)"/>
<path style="fill: none; stroke-width: 0.750492; stroke-linecap: butt; stroke-linejoin: round; stroke: rgb(0%,0%,0%); opacity: 1;stroke-miterlimit: 10;" d="M 26.233154 14.739578 L 39.116623 22.180527 " transform="matrix(1,0,0,1,0,0)"/>
<path style="fill: none; stroke-width: 0.750492; stroke-linecap: round; stroke-linejoin: round; stroke: rgb(0%,0%,0%); opacity: 1;stroke-miterlimit: 10;" d="M 26.337997 9.600098 L 43.515945 19.521362 " transform="matrix(1,0,0,1,0,0)"/>
<path style="fill: none; stroke-width: 0.750492; stroke-linecap: round; stroke-linejoin: round; stroke: rgb(0%,0%,0%); opacity: 1;stroke-miterlimit: 10;" d="M 158.347443 39.335526 L 141.169495 49.25679 " transform="matrix(1,0,0,1,0,0)"/>
<path style="fill: none; stroke-width: 0.750492; stroke-linecap: round; stroke-linejoin: round; stroke: rgb(0%,0%,0%); opacity: 1;stroke-miterlimit: 10;" d="M 123.991531 19.521362 L 123.991531 39.335526 " transform="matrix(1,0,0,1,0,0)"/>
<path style="fill: none; stroke-width: 0.750492; stroke-linecap: butt; stroke-linejoin: round; stroke: rgb(0%,0%,0%); opacity: 1;stroke-miterlimit: 10;" d="M 128.390869 22.180527 L 141.274323 14.739578 " transform="matrix(1,0,0,1,0,0)"/>
<path style="fill: none; stroke-width: 0.750492; stroke-linecap: round; stroke-linejoin: round; stroke: rgb(0%,0%,0%); opacity: 1;stroke-miterlimit: 10;" d="M 123.991531 19.521362 L 141.169495 9.600098 " transform="matrix(1,0,0,1,0,0)"/>
<path style="fill: none; stroke-width: 0.750492; stroke-linecap: butt; stroke-linejoin: round; stroke: rgb(0%,0%,0%); opacity: 1;stroke-miterlimit: 10;" d="M 128.390869 36.676361 L 141.274323 44.11731 " transform="matrix(1,0,0,1,0,0)"/>
<path style="fill: none; stroke-width: 0.750492; stroke-linecap: round; stroke-linejoin: round; stroke: rgb(0%,0%,0%); opacity: 1;stroke-miterlimit: 10;" d="M 123.991531 39.335526 L 141.169495 49.25679 " transform="matrix(1,0,0,1,0,0)"/>
<path style="fill: none; stroke-width: 0.750492; stroke-linecap: round; stroke-linejoin: round; stroke: rgb(0%,0%,0%); opacity: 1;stroke-miterlimit: 10;" d="M 141.169495 9.600098 L 158.347443 19.521362 " transform="matrix(1,0,0,1,0,0)"/>
<path style="fill: none; stroke-width: 0.750492; stroke-linecap: butt; stroke-linejoin: round; stroke: rgb(0%,0%,0%); opacity: 1;stroke-miterlimit: 10;" d="M 153.844482 21.998123 L 153.844482 36.858765 " transform="matrix(1,0,0,1,0,0)"/>
<path style="fill: none; stroke-width: 0.750492; stroke-linecap: round; stroke-linejoin: round; stroke: rgb(0%,0%,0%); opacity: 1;stroke-miterlimit: 10;" d="M 158.347443 19.521362 L 158.347443 39.335526 " transform="matrix(1,0,0,1,0,0)"/>
<path style="fill: none; stroke-width: 0.750492; stroke-linecap: round; stroke-linejoin: round; stroke: rgb(0%,0%,0%); opacity: 1;stroke-miterlimit: 10;" d="M 261.982086 9.600098 L 244.804138 19.521362 " transform="matrix(1,0,0,1,0,0)"/>
<path style="fill: none; stroke-width: 0.750492; stroke-linecap: round; stroke-linejoin: round; stroke: rgb(0%,0%,0%); opacity: 1;stroke-miterlimit: 10;" d="M 279.188385 39.363876 L 279.188385 19.521362 " transform="matrix(1,0,0,1,0,0)"/>
<path style="fill: none; stroke-width: 0.750492; stroke-linecap: round; stroke-linejoin: round; stroke: rgb(0%,0%,0%); opacity: 1;stroke-miterlimit: 10;" d="M 261.982086 49.25679 L 279.188385 39.363876 " transform="matrix(1,0,0,1,0,0)"/>
<path style="fill: none; stroke-width: 0.750492; stroke-linecap: round; stroke-linejoin: round; stroke: rgb(0%,0%,0%); opacity: 1;stroke-miterlimit: 10;" d="M 244.804138 19.521362 L 244.804138 39.363876 " transform="matrix(1,0,0,1,0,0)"/>
<path style="fill: none; stroke-width: 0.750492; stroke-linecap: round; stroke-linejoin: round; stroke: rgb(0%,0%,0%); opacity: 1;stroke-miterlimit: 10;" d="M 244.804138 39.363876 L 261.982086 49.25679 " transform="matrix(1,0,0,1,0,0)"/>
<path style="fill: none; stroke-width: 0.750492; stroke-linecap: round; stroke-linejoin: round; stroke: rgb(0%,0%,0%); opacity: 1;stroke-miterlimit: 10;" d="M 279.188385 19.521362 L 261.982086 9.600098 " transform="matrix(1,0,0,1,0,0)"/>
<path style="fill: none; stroke-width: 0.750492; stroke-linecap: butt; stroke-linejoin: round; stroke: rgb(0%,0%,0%); opacity: 1;stroke-miterlimit: 10;" d="M 275.418304 37.351273 L 275.418304 34.176483 " transform="matrix(1,0,0,1,0,0)"/>
<path style="fill: none; stroke-width: 0.750492; stroke-linecap: butt; stroke-linejoin: round; stroke: rgb(0%,0%,0%); opacity: 1;stroke-miterlimit: 10;" d="M 275.418304 31.001678 L 275.418304 27.826874 " transform="matrix(1,0,0,1,0,0)"/>
<path style="fill: none; stroke-width: 0.750492; stroke-linecap: butt; stroke-linejoin: round; stroke: rgb(0%,0%,0%); opacity: 1;stroke-miterlimit: 10;" d="M 275.418304 24.652069 L 275.418304 21.477264 " transform="matrix(1,0,0,1,0,0)"/>
<path style="fill: none; stroke-width: 0.750492; stroke-linecap: butt; stroke-linejoin: round; stroke: rgb(0%,0%,0%); opacity: 1;stroke-miterlimit: 10;" d="M 261.670273 45.259933 L 264.419876 43.678207 " transform="matrix(1,0,0,1,0,0)"/>
<path style="fill: none; stroke-width: 0.750492; stroke-linecap: butt; stroke-linejoin: round; stroke: rgb(0%,0%,0%); opacity: 1;stroke-miterlimit: 10;" d="M 267.169495 42.096481 L 269.919098 40.51474 " transform="matrix(1,0,0,1,0,0)"/>
<path style="fill: none; stroke-width: 0.750492; stroke-linecap: butt; stroke-linejoin: round; stroke: rgb(0%,0%,0%); opacity: 1;stroke-miterlimit: 10;" d="M 272.668701 38.933014 L 275.418304 37.351273 " transform="matrix(1,0,0,1,0,0)"/>
<path style="fill: none; stroke-width: 0.750492; stroke-linecap: butt; stroke-linejoin: round; stroke: rgb(0%,0%,0%); opacity: 1;stroke-miterlimit: 10;" d="M 247.922241 21.477264 L 247.922241 24.652069 " transform="matrix(1,0,0,1,0,0)"/>
<path style="fill: none; stroke-width: 0.750492; stroke-linecap: butt; stroke-linejoin: round; stroke: rgb(0%,0%,0%); opacity: 1;stroke-miterlimit: 10;" d="M 247.922241 27.826874 L 247.922241 31.001678 " transform="matrix(1,0,0,1,0,0)"/>
<path style="fill: none; stroke-width: 0.750492; stroke-linecap: butt; stroke-linejoin: round; stroke: rgb(0%,0%,0%); opacity: 1;stroke-miterlimit: 10;" d="M 247.922241 34.176483 L 247.922241 37.351273 " transform="matrix(1,0,0,1,0,0)"/>
<path style="fill: none; stroke-width: 0.750492; stroke-linecap: butt; stroke-linejoin: round; stroke: rgb(0%,0%,0%); opacity: 1;stroke-miterlimit: 10;" d="M 247.922241 37.351273 L 250.671844 38.933014 " transform="matrix(1,0,0,1,0,0)"/>
<path style="fill: none; stroke-width: 0.750492; stroke-linecap: butt; stroke-linejoin: round; stroke: rgb(0%,0%,0%); opacity: 1;stroke-miterlimit: 10;" d="M 253.421463 40.51474 L 256.171066 42.096481 " transform="matrix(1,0,0,1,0,0)"/>
<path style="fill: none; stroke-width: 0.750492; stroke-linecap: butt; stroke-linejoin: round; stroke: rgb(0%,0%,0%); opacity: 1;stroke-miterlimit: 10;" d="M 258.92067 43.678207 L 261.670273 45.259933 " transform="matrix(1,0,0,1,0,0)"/>
<path style="fill: none; stroke-width: 0.750492; stroke-linecap: butt; stroke-linejoin: round; stroke: rgb(0%,0%,0%); opacity: 1;stroke-miterlimit: 10;" d="M 261.670273 13.540253 L 258.92067 15.127655 " transform="matrix(1,0,0,1,0,0)"/>
<path style="fill: none; stroke-width: 0.750492; stroke-linecap: butt; stroke-linejoin: round; stroke: rgb(0%,0%,0%); opacity: 1;stroke-miterlimit: 10;" d="M 256.171066 16.715057 L 253.421463 18.30246 " transform="matrix(1,0,0,1,0,0)"/>
<path style="fill: none; stroke-width: 0.750492; stroke-linecap: butt; stroke-linejoin: round; stroke: rgb(0%,0%,0%); opacity: 1;stroke-miterlimit: 10;" d="M 250.671844 19.889862 L 247.922241 21.477264 " transform="matrix(1,0,0,1,0,0)"/>
<path style="fill: none; stroke-width: 0.750492; stroke-linecap: butt; stroke-linejoin: round; stroke: rgb(0%,0%,0%); opacity: 1;stroke-miterlimit: 10;" d="M 275.418304 21.477264 L 272.668701 19.889862 " transform="matrix(1,0,0,1,0,0)"/>
<path style="fill: none; stroke-width: 0.750492; stroke-linecap: butt; stroke-linejoin: round; stroke: rgb(0%,0%,0%); opacity: 1;stroke-miterlimit: 10;" d="M 269.919098 18.30246 L 267.169495 16.715057 " transform="matrix(1,0,0,1,0,0)"/>
<path style="fill: none; stroke-width: 0.750492; stroke-linecap: butt; stroke-linejoin: round; stroke: rgb(0%,0%,0%); opacity: 1;stroke-miterlimit: 10;" d="M 264.419876 15.127655 L 261.670273 13.540253 " transform="matrix(1,0,0,1,0,0)"/>
<path style="fill: none; stroke-width: 0.750492; stroke-linecap: butt; stroke-linejoin: round; stroke: rgb(0%,0%,0%); opacity: 1;stroke-miterlimit: 10;" d="M 66.051376 30.009552 L 105.401779 30.009552 " transform="matrix(1,0,0,1,0,0)"/>
<path style="stroke: none; fill-rule: evenodd; fill: rgb(0%,0%,0%); opacity: 1;" d="M 111.405716 30.009552 L 103.900787 27.758072 L 105.401779 30.009552 L 103.900787 32.261017 Z M 111.405716 30.009552 "/>
<path style="fill: none; stroke-width: 0.750492; stroke-linecap: butt; stroke-linejoin: miter; stroke: rgb(0%,0%,0%); opacity: 1;stroke-miterlimit: 10;" d="M 111.405716 30.009552 L 103.900787 27.758072 L 105.401779 30.009552 L 103.900787 32.261017 Z M 111.405716 30.009552 " transform="matrix(1,0,0,1,0,0)"/>
<path style="fill: none; stroke-width: 0.750492; stroke-linecap: butt; stroke-linejoin: round; stroke: rgb(0%,0%,0%); opacity: 1;stroke-miterlimit: 10;" d="M 100.577362 30.009552 L 61.226974 30.009552 " transform="matrix(1,0,0,1,0,0)"/>
<path style="stroke: none; fill-rule: evenodd; fill: rgb(0%,0%,0%); opacity: 1;" d="M 55.223038 30.009552 L 62.727951 32.261017 L 61.226974 30.009552 L 62.727951 27.758072 Z M 55.223038 30.009552 "/>
<path style="fill: none; stroke-width: 0.750492; stroke-linecap: butt; stroke-linejoin: miter; stroke: rgb(0%,0%,0%); opacity: 1;stroke-miterlimit: 10;" d="M 55.223038 30.009552 L 62.727951 32.261017 L 61.226974 30.009552 L 62.727951 27.758072 Z M 55.223038 30.009552 " transform="matrix(1,0,0,1,0,0)"/>
<path style="fill: none; stroke-width: 0.750492; stroke-linecap: butt; stroke-linejoin: round; stroke: rgb(0%,0%,0%); opacity: 1;stroke-miterlimit: 10;" d="M 195.141144 25.129974 L 214.983658 25.129974 " transform="matrix(1,0,0,1,0,0)"/>
<path style="fill: none; stroke-width: 0.750492; stroke-linecap: butt; stroke-linejoin: round; stroke: rgb(0%,0%,0%); opacity: 1;stroke-miterlimit: 10;" d="M 195.141144 31.884399 L 214.983658 31.884399 " transform="matrix(1,0,0,1,0,0)"/>
<path style="fill: none; stroke-width: 0.750492; stroke-linecap: round; stroke-linejoin: round; stroke: rgb(0%,0%,0%); opacity: 1;stroke-miterlimit: 10;" d="M 195.141144 28.507187 L 214.983658 28.507187 " transform="matrix(1,0,0,1,0,0)"/>
</g>
</svg>
