<?xml version="1.0" encoding="UTF-8" standalone="no"?>
<svg
   xmlns:dc="http://purl.org/dc/elements/1.1/"
   xmlns:cc="http://creativecommons.org/ns#"
   xmlns:rdf="http://www.w3.org/1999/02/22-rdf-syntax-ns#"
   xmlns:svg="http://www.w3.org/2000/svg"
   xmlns="http://www.w3.org/2000/svg"
   viewBox="0 0 520 370"
   height="370"
   width="520"
   xml:space="preserve"
   version="1.1"
   id="svg2"><g
     id="g1644"
     transform="translate(0,5.4793014)"><path
       style="clip-rule:evenodd;fill:#000000;fill-rule:nonzero;stroke:none;stroke-width:1.33333"
       d="m 115.7501,57.187368 2.26667,1.33333 v 51.133342 l -1.13333,1.13333 -1.13334,-1.13333"
       id="path9" /><path
       style="clip-rule:evenodd;fill:#0000ff;fill-rule:nonzero;stroke:none;stroke-width:1.33333"
       d="m 71.054198,19.987368 c -6.6875,0 -11.22916,4.89584 -11.22916,12.02083 0,7.14584 4.5,11.97917 11.27082,11.97917 2.83331,0 5.33331,-0.85413 7.22918,-2.4584 2.5208,-2.0832 4.0208,-5.62493 4.0208,-9.33327 0,-7.35417 -4.43747,-12.20833 -11.29164,-12.20833 z m 0,2.625 c 5.06244,0 8.31244,3.72916 8.31244,9.52084 0,5.50003 -3.35414,9.25003 -8.27078,9.25003 -5,0 -8.29165,-3.75 -8.29165,-9.37504 0,-5.62499 3.29165,-9.39583 8.24999,-9.39583 z"
       id="path11" /><path
       style="clip-rule:evenodd;fill:#0000ff;fill-rule:nonzero;stroke:none;stroke-width:1.33333"
       d="m 81.550098,43.387368 1.13334,-2 34.800002,20.06667 -1.2,2 z"
       id="path13" /><path
       style="clip-rule:evenodd;fill:#0000ff;fill-rule:nonzero;stroke:none;stroke-width:1.33333"
       d="m 85.483438,36.520698 1.13333,-2 34.800002,20.06667 -1.13333,2 z"
       id="path15" /><path
       style="clip-rule:evenodd;fill:#0000ff;fill-rule:nonzero;stroke:none;stroke-width:1.33333"
       d="m 168.77517,33.279038 v 10.70833 h 2.9792 v -24 h -2.9792 v 10.66667 h -12.00003 v -10.66667 h -2.97917 v 24 h 2.97917 v -10.70833 z"
       id="path17" /><path
       style="clip-rule:evenodd;fill:#0000ff;fill-rule:nonzero;stroke:none;stroke-width:1.33333"
       d="m 148.48344,38.320698 1.13333,1.93334 -31.6,18.26666 -2.26667,-1.33333 z"
       id="path19" /><g
       style="clip-rule:evenodd;fill:none;stroke:none"
       id="Gruppe1"
       transform="matrix(1.3333333,0,0,1.3333333,158.55837,99.387368)"><path
         style="fill:#000000;fill-rule:nonzero;stroke:none"
         d="M 8.42188,0 C 3.40625,0 0,3.67188 0,9.01562 0,14.375 3.375,18 8.45312,18 10.5781,18 12.4531,17.3594 13.875,16.1562 15.7656,14.5938 16.8906,11.9375 16.8906,9.15625 16.8906,3.64062 13.5625,0 8.42188,0 Z m 0,1.96875 c 3.79692,0 6.23432,2.79687 6.23432,7.14063 0,4.12502 -2.5156,6.93752 -6.20308,6.93752 -3.75,0 -6.21874,-2.8125 -6.21874,-7.03128 0,-4.21874 2.46874,-7.04687 6.1875,-7.04687 z"
         id="path21" /><path
         style="fill:#000000;fill-rule:nonzero;stroke:none"
         d="M 11.2344,9.96875 V 18 h 2.2344 V 0 H 11.2344 V 8 H 2.23438 V 0 H 0 V 18 H 2.23438 V 9.96875 Z"
         transform="translate(19.7501)"
         id="path23" /></g><path
       style="clip-rule:evenodd;fill:#000000;fill-rule:nonzero;stroke:none;stroke-width:1.33333"
       d="m 155.9501,109.65404 v 2.26666 h -37.93333 l -1.13333,-1.13333 1.13333,-1.13333"
       id="path26-5" /><path
       style="clip-rule:evenodd;fill:#000000;fill-rule:nonzero;stroke:none;stroke-width:1.33333"
       d="m 70.041838,112.67904 v 10.70833 h 2.9792 V 99.387368 h -2.9792 V 110.05404 H 58.041808 V 99.387368 h -2.97917 v 24.000002 h 2.97917 v -10.70833 z"
       id="path28-5" /><path
       style="clip-rule:evenodd;fill:#000000;fill-rule:nonzero;stroke:none;stroke-width:1.33333"
       d="m 75.883438,111.9207 v -2.26666 H 115.7501 l 1.13334,1.13333 -1.13334,1.13333"
       id="path30" /><path
       style="clip-rule:evenodd;fill:#000000;fill-rule:nonzero;stroke:none;stroke-width:1.33333"
       d="m 118.01677,162.58737 -1.13333,1.13333 -1.13334,-1.13333 V 111.9207 l 1.13334,-1.13333 1.13333,1.13333"
       id="path32" /><path
       style="clip-rule:evenodd;fill:#000000;fill-rule:nonzero;stroke:none;stroke-width:1.33333"
       d="m 118.01677,215.45403 -1.13333,1.13334 -1.13334,-1.13334 v -50.6 l 1.13334,-1.13333 1.13333,1.13333"
       id="path34" /><path
       style="clip-rule:evenodd;fill:#000000;fill-rule:nonzero;stroke:none;stroke-width:1.33333"
       d="m 175.84184,165.61237 v 10.70833 h 2.9792 v -24 h -2.9792 v 10.66667 H 163.84181 V 152.3207 h -2.97917 v 24 h 2.97917 v -10.70833 z"
       id="path36-8" /><path
       style="clip-rule:evenodd;fill:#000000;fill-rule:nonzero;stroke:none;stroke-width:1.33333"
       d="m 157.81677,162.58737 v 2.26666 h -39.8 l -1.13333,-1.13333 1.13333,-1.13333"
       id="path38" /><g
       style="clip-rule:evenodd;fill:none;stroke:none"
       id="Gruppe2"
       transform="matrix(1.3333333,0,0,1.3333333,31.038638,152.3207)"><path
         style="fill:#000000;fill-rule:nonzero;stroke:none"
         d="M 11.2344,9.96875 V 18 h 2.2344 V 0 H 11.2344 V 8 H 2.23438 V 0 H 0 V 18 H 2.23438 V 9.96875 Z"
         id="path40" /><path
         style="fill:#000000;fill-rule:nonzero;stroke:none"
         d="M 8.42188,0 C 3.40625,0 0,3.67188 0,9.01562 0,14.375 3.375,18 8.45312,18 10.5781,18 12.4531,17.3594 13.875,16.1562 15.7656,14.5938 16.8906,11.9375 16.8906,9.15625 16.8906,3.64062 13.5625,0 8.42188,0 Z m 0,1.96875 c 3.79692,0 6.23442,2.79687 6.23442,7.14063 0,4.12502 -2.5157,6.93752 -6.20318,6.93752 -3.75,0 -6.21874,-2.8125 -6.21874,-7.03128 0,-4.21874 2.46874,-7.04687 6.1875,-7.04687 z"
         transform="translate(16.2499)"
         id="path42" /></g><path
       style="clip-rule:evenodd;fill:#000000;fill-rule:nonzero;stroke:none;stroke-width:1.33333"
       d="m 77.950098,164.85403 v -2.26666 H 115.7501 l 1.13334,1.13333 -1.13334,1.13333"
       id="path45" /><g
       style="clip-rule:evenodd;fill:none;stroke:none"
       id="Gruppe3"
       transform="matrix(1.3333333,0,0,1.3333333,158.55837,205.18737)"><path
         style="fill:#000000;fill-rule:nonzero;stroke:none"
         d="M 8.42188,0 C 3.40625,0 0,3.67188 0,9.01562 0,14.375 3.375,18 8.45312,18 10.5781,18 12.4531,17.3594 13.875,16.1562 15.7656,14.5938 16.8906,11.9375 16.8906,9.15625 16.8906,3.64062 13.5625,0 8.42188,0 Z m 0,1.96875 c 3.79692,0 6.23432,2.79687 6.23432,7.14063 0,4.12502 -2.5156,6.93752 -6.20308,6.93752 -3.75,0 -6.21874,-2.8125 -6.21874,-7.03128 0,-4.21874 2.46874,-7.04687 6.1875,-7.04687 z"
         id="path47" /><path
         style="fill:#000000;fill-rule:nonzero;stroke:none"
         d="M 11.2344,9.96875 V 18 h 2.2344 V 0 H 11.2344 V 8 H 2.23438 V 0 H 0 V 18 H 2.23438 V 9.96875 Z"
         transform="translate(19.7501)"
         id="path49" /></g><path
       style="clip-rule:evenodd;fill:#000000;fill-rule:nonzero;stroke:none;stroke-width:1.33333"
       d="m 155.9501,215.45403 v 2.26667 h -37.93333 l -1.13333,-1.13333 1.13333,-1.13334"
       id="path52-2" /><path
       style="clip-rule:evenodd;fill:#000000;fill-rule:nonzero;stroke:none;stroke-width:1.33333"
       d="m 70.041838,218.47903 v 10.70833 h 2.9792 v -23.99999 h -2.9792 v 10.66666 h -12.00003 v -10.66666 h -2.97917 v 23.99999 h 2.97917 v -10.70833 z"
       id="path54" /><path
       style="clip-rule:evenodd;fill:#000000;fill-rule:nonzero;stroke:none;stroke-width:1.33333"
       d="m 75.883438,217.7207 v -2.26667 H 115.7501 l 1.13334,1.13334 -1.13334,1.13333"
       id="path56" /><path
       style="clip-rule:evenodd;fill:#000000;fill-rule:nonzero;stroke:none;stroke-width:1.33333"
       d="m 118.01677,268.38736 -1.13333,1.13334 -1.13334,-1.13334 V 217.7207 l 1.13334,-1.13333 1.13333,1.13333"
       id="path58" /><g
       style="clip-rule:evenodd;fill:none;stroke:none"
       id="Gruppe4"
       transform="matrix(1.3333333,0,0,1.3333333,158.55837,258.1207)"><path
         style="fill:#000000;fill-rule:nonzero;stroke:none"
         d="M 8.42188,0 C 3.40625,0 0,3.67188 0,9.01562 0,14.375 3.375,18 8.45312,18 10.5781,18 12.4531,17.3594 13.875,16.1562 15.7656,14.5938 16.8906,11.9375 16.8906,9.15625 16.8906,3.64062 13.5625,0 8.42188,0 Z m 0,1.96875 c 3.79692,0 6.23432,2.79687 6.23432,7.14063 0,4.12502 -2.5156,6.93752 -6.20308,6.93752 -3.75,0 -6.21874,-2.8125 -6.21874,-7.03128 0,-4.21874 2.46874,-7.04687 6.1875,-7.04687 z"
         id="path60-0" /><path
         style="fill:#000000;fill-rule:nonzero;stroke:none"
         d="M 11.2344,9.96875 V 18 h 2.2344 V 0 H 11.2344 V 8 H 2.23438 V 0 H 0 V 18 H 2.23438 V 9.96875 Z"
         transform="translate(19.7501)"
         id="path62-6" /></g><path
       style="clip-rule:evenodd;fill:#000000;fill-rule:nonzero;stroke:none;stroke-width:1.33333"
       d="m 155.9501,268.38736 v 2.26667 h -37.93333 l -1.13333,-1.13333 1.13333,-1.13334"
       id="path65" /><path
       style="clip-rule:evenodd;fill:#000000;fill-rule:nonzero;stroke:none;stroke-width:1.33333"
       d="m 70.041838,271.41236 v 10.70834 h 2.9792 v -24 h -2.9792 v 10.66666 H 58.041808 V 258.1207 h -2.97917 v 24 h 2.97917 v -10.70834 z"
       id="path67" /><path
       style="clip-rule:evenodd;fill:#000000;fill-rule:nonzero;stroke:none;stroke-width:1.33333"
       d="m 75.883438,270.65403 v -2.26667 H 115.7501 l 1.13334,1.13334 -1.13334,1.13333"
       id="path69" /><g
       style="clip-rule:evenodd;fill:none;stroke:none"
       id="Gruppe5"
       transform="matrix(1.3333333,0,0,1.3333333,106.8709,311.05403)"><path
         style="fill:#000000;fill-rule:nonzero;stroke:none"
         d="M 14.7344,5.64062 C 14.0469,1.875 11.8438,0 8,0 5.64062,0 3.75,0.75 2.45312,2.1875 0.875,3.875 0,6.3125 0,9.07812 0,11.8906 0.890625,14.3125 2.53125,15.9688 3.89062,17.3594 5.625,18 7.90625,18 12.1719,18 14.5781,15.7188 15.0938,11.1875 H 12.7969 C 12.6094,12.3594 12.3594,13.1562 12,13.8438 11.2812,15.25 9.79688,16.0469 7.92188,16.0469 c -3.48438,0 -5.6875,-2.7188 -5.6875,-6.9844 0,-4.39062 2.09374,-7.09375 5.5,-7.09375 1.42187,0 2.73442,0.40625 3.45312,1.09375 0.6563,0.57812 1.0156,1.28125 1.2656,2.57812 z"
         id="path71" /><path
         style="fill:#000000;fill-rule:nonzero;stroke:none"
         d="M 11.2344,9.96875 V 18 h 2.2344 V 0 H 11.2344 V 8 H 2.23438 V 0 H 0 V 18 H 2.23438 V 9.96875 Z"
         transform="translate(18.1718)"
         id="path73" /><path
         style="fill:#000000;fill-rule:nonzero;stroke:none"
         d="M 8.5,11.4531 H 1.78125 C 1.9375,10.375 2.51562,9.6875 4.07812,8.73438 l 1.79688,-1 c 1.79688,-1 2.70312,-2.32813 2.70312,-3.92188 0,-1.07812 -0.42187,-2.09375 -1.1875,-2.79688 C 6.64062,0.328125 5.70312,0 4.5,0 2.875,0 1.67188,0.578125 0.96875,1.70312 0.515625,2.39062 0.3125,3.1875 0.28125,4.51562 H 1.875 C 1.92188,3.625 2.03125,3.10938 2.25,2.67188 2.65625,1.875 3.48438,1.39062 4.4375,1.39062 c 1.4375,0 2.53125,1.04688 2.53125,2.45313 0,1.04687 -0.59375,1.9375 -1.73437,2.59375 L 3.57812,7.40625 C 0.90625,8.9375 0.140625,10.1562 0,13 h 8.5 z"
         transform="translate(34.1247,9.5)"
         id="path75" /><path
         style="fill:#000000;fill-rule:nonzero;stroke:none"
         d="M 8.42188,0 C 3.40625,0 0,3.67188 0,9.01562 0,14.375 3.375,18 8.45312,18 10.5781,18 12.4531,17.3594 13.875,16.1562 15.7656,14.5938 16.8906,11.9375 16.8906,9.15625 16.8906,3.64062 13.5625,0 8.42188,0 Z m 0,1.96875 c 3.79692,0 6.23432,2.79687 6.23432,7.14063 0,4.12502 -2.5156,6.93752 -6.20308,6.93752 -3.75,0 -6.21874,-2.8125 -6.21874,-7.03128 0,-4.21874 2.46874,-7.04687 6.1875,-7.04687 z"
         transform="translate(44.4293)"
         id="path77" /><path
         style="fill:#000000;fill-rule:nonzero;stroke:none"
         d="M 11.2344,9.96875 V 18 h 2.2344 V 0 H 11.2344 V 8 H 2.23438 V 0 H 0 V 18 H 2.23438 V 9.96875 Z"
         transform="translate(64.1795)"
         id="path79" /></g><path
       style="clip-rule:evenodd;fill:#000000;fill-rule:nonzero;stroke:none;stroke-width:1.33333"
       d="m 118.01677,307.9207 h -2.26667 v -37.26667 l 1.13334,-1.13333 1.13333,1.13333"
       id="path82-7" /></g><metadata
     id="metadata8"><rdf:RDF><cc:Work
         rdf:about=""><dc:format>image/svg+xml</dc:format><dc:type
           rdf:resource="http://purl.org/dc/dcmitype/StillImage" /><dc:title></dc:title></cc:Work></rdf:RDF></metadata><defs
     id="defs6" /><g
     transform="matrix(3.125,0,0,-3.125,-59.383461,444.41451)"
     id="g74"
     style="fill:#00a8a8;fill-opacity:1"><g
       id="text76"
       style="font-variant:normal;font-weight:normal;font-size:10px;font-family:Helvetica;-inkscape-font-specification:Helvetica;writing-mode:lr-tb;fill:#00a8a8;fill-opacity:1;fill-rule:nonzero;stroke:none"
       transform="matrix(1,0,0,-1,149.05,76.9)"><path
         id="path3699"
         d="m 3.8574219,-7.3681641 q 1.899414,0 2.8125,1.2207032 0.7128906,0.9521484 0.7128906,2.4365234 0,1.6064453 -0.8154297,2.6708984 -0.9570312,1.25000004 -2.7294922,1.25000004 -1.6552734,0 -2.602539,-1.09375 Q 0.390625,-1.9384766 0.390625,-3.5498047 q 0,-1.4550781 0.7226562,-2.4902344 0.9277344,-1.328125 2.7441407,-1.328125 z m 0.097656,6.70898441 q 1.2841797,0 1.8554688,-0.91796871 0.576172,-0.9228516 0.576172,-2.1191407 0,-1.2646484 -0.6640625,-2.0361328 -0.6591796,-0.7714843 -1.8066406,-0.7714843 -1.1132812,0 -1.8164062,0.7666015 -0.703125,0.7617188 -0.703125,2.2509766 0,1.1914062 0.6005859,2.0117187 0.6054688,0.81542971 1.9580076,0.81542971 z M 3.8867189,-7.3681641 Z"
         style="fill:#00a8a8;fill-opacity:1" /></g></g><path
     id="path80"
     style="fill:#000000;fill-opacity:1;fill-rule:nonzero;stroke:none;stroke-width:0.125"
     d="m 302.17905,235.50826 h -1.40625 l -0.9375,-0.46875 45.46875,-42.8125 0.9375,0.3125 0.3125,0.9375" /><path
     id="path82"
     style="fill:#000000;fill-opacity:1;fill-rule:nonzero;stroke:none;stroke-width:0.125"
     d="m 345.30405,270.97701 0.9375,6.875 -3.59375,3.125 -40.9375,-43.125 -0.9375,-2.34375 h 1.40625" /><path
     id="path84"
     style="fill:#000000;fill-opacity:1;fill-rule:nonzero;stroke:none;stroke-width:0.125"
     d="m 413.74155,274.72701 3.59375,3.125 -0.9375,3.125 h -73.75 l 3.59375,-3.125 0.9375,-3.125" /><path
     id="path86"
     style="fill:#000000;fill-opacity:1;fill-rule:nonzero;stroke:none;stroke-width:0.125"
     d="m 463.11655,235.50826 h 1.40625 l -0.9375,2.34375 -45.3125,45.78125 -0.9375,-5.78125 -3.59375,-3.125" /><path
     id="path88"
     style="fill:#00a8a8;fill-opacity:1;fill-rule:nonzero;stroke:none;stroke-width:0.125"
     d="m 430.7728,206.13326 1.25,-1.40625 33.4375,30.3125 -0.9375,0.46875 h -1.40625" /><path
     id="path90"
     style="fill:#000000;fill-opacity:1;fill-rule:nonzero;stroke:none;stroke-width:0.125"
     d="m 401.3978,191.60201 v 1.875 h -54.84375 l -0.3125,-0.9375 0.9375,-0.9375" /><g
     id="text94"
     style="font-variant:normal;font-weight:normal;font-size:10px;font-family:Helvetica;-inkscape-font-specification:Helvetica;writing-mode:lr-tb;fill:#000000;fill-opacity:1;fill-rule:nonzero;stroke:none"
     transform="matrix(3.125,0,0,3.125,289.8353,305.35201)"><path
       id="path3702"
       d="m 3.8574219,-7.3681641 q 1.899414,0 2.8125,1.2207032 0.7128906,0.9521484 0.7128906,2.4365234 0,1.6064453 -0.8154297,2.6708984 -0.9570312,1.25000004 -2.7294922,1.25000004 -1.6552734,0 -2.602539,-1.09375 Q 0.390625,-1.9384766 0.390625,-3.5498047 q 0,-1.4550781 0.7226562,-2.4902344 0.9277344,-1.328125 2.7441407,-1.328125 z m 0.097656,6.70898441 q 1.2841797,0 1.8554688,-0.91796871 0.576172,-0.9228516 0.576172,-2.1191407 0,-1.2646484 -0.6640625,-2.0361328 -0.6591796,-0.7714843 -1.8066406,-0.7714843 -1.1132812,0 -1.8164062,0.7666015 -0.703125,0.7617188 -0.703125,2.2509766 0,1.1914062 0.6005859,2.0117187 0.6054688,0.81542971 1.9580076,0.81542971 z M 3.8867189,-7.3681641 Z" /><path
       id="path3704"
       d="m 8.566133,-7.1728516 h 0.9814453 v 2.9638672 h 3.7304687 v -2.9638672 h 0.981445 V 0 H 13.278047 V -3.3544922 H 9.5475783 V 0 H 8.566133 Z" /></g><path
     id="path98"
     style="fill:#000000;fill-opacity:1;fill-rule:nonzero;stroke:none;stroke-width:0.125"
     d="m 301.7103,276.28951 h -1.875 v -41.25 l 0.9375,0.46875 0.9375,2.34375" /><g
     transform="matrix(3.125,0,0,-3.125,-59.383461,355.03951)"
     id="g100"
     style="fill:#00a8a8;fill-opacity:1"><g
       id="text102"
       style="font-variant:normal;font-weight:normal;font-size:10px;font-family:Helvetica;-inkscape-font-specification:Helvetica;writing-mode:lr-tb;fill:#00a8a8;fill-opacity:1;fill-rule:nonzero;stroke:none"
       transform="matrix(1,0,0,-1,164.15,48.3)"><path
         id="path3707"
         d="m 3.8574219,-7.3681641 q 1.899414,0 2.8125,1.2207032 0.7128906,0.9521484 0.7128906,2.4365234 0,1.6064453 -0.8154297,2.6708984 -0.9570312,1.25000004 -2.7294922,1.25000004 -1.6552734,0 -2.602539,-1.09375 Q 0.390625,-1.9384766 0.390625,-3.5498047 q 0,-1.4550781 0.7226562,-2.4902344 0.9277344,-1.328125 2.7441407,-1.328125 z m 0.097656,6.70898441 q 1.2841797,0 1.8554688,-0.91796871 0.576172,-0.9228516 0.576172,-2.1191407 0,-1.2646484 -0.6640625,-2.0361328 -0.6591796,-0.7714843 -1.8066406,-0.7714843 -1.1132812,0 -1.8164062,0.7666015 -0.703125,0.7617188 -0.703125,2.2509766 0,1.1914062 0.6005859,2.0117187 0.6054688,0.81542971 1.9580076,0.81542971 z M 3.8867189,-7.3681641 Z"
         style="fill:#00a8a8;fill-opacity:1" /><path
         id="path3709"
         d="m 8.566133,-7.1728516 h 0.9814453 v 2.9638672 h 3.7304687 v -2.9638672 h 0.981445 V 0 H 13.278047 V -3.3544922 H 9.5475783 V 0 H 8.566133 Z"
         style="fill:#00a8a8;fill-opacity:1" /></g></g><path
     id="path106"
     style="fill:#00a8a8;fill-opacity:1;fill-rule:nonzero;stroke:none;stroke-width:0.125"
     d="m 465.4603,206.74888 h -1.875 v 26.5625 4.54063 l 1.875,-1.72813" /><g
     transform="matrix(3.125,0,0,-3.125,-59.383461,444.41451)"
     id="g108"><g
       id="text110"
       style="font-variant:normal;font-weight:normal;font-size:10px;font-family:Helvetica;-inkscape-font-specification:Helvetica;writing-mode:lr-tb;fill:#000000;fill-opacity:1;fill-rule:nonzero;stroke:none"
       transform="matrix(1,0,0,-1,149.05,33.9)"><path
         id="path3712"
         d="m 3.8574219,-7.3681641 q 1.899414,0 2.8125,1.2207032 0.7128906,0.9521484 0.7128906,2.4365234 0,1.6064453 -0.8154297,2.6708984 -0.9570312,1.25000004 -2.7294922,1.25000004 -1.6552734,0 -2.602539,-1.09375 Q 0.390625,-1.9384766 0.390625,-3.5498047 q 0,-1.4550781 0.7226562,-2.4902344 0.9277344,-1.328125 2.7441407,-1.328125 z m 0.097656,6.70898441 q 1.2841797,0 1.8554688,-0.91796871 0.576172,-0.9228516 0.576172,-2.1191407 0,-1.2646484 -0.6640625,-2.0361328 -0.6591796,-0.7714843 -1.8066406,-0.7714843 -1.1132812,0 -1.8164062,0.7666015 -0.703125,0.7617188 -0.703125,2.2509766 0,1.1914062 0.6005859,2.0117187 0.6054688,0.81542971 1.9580076,0.81542971 z M 3.8867189,-7.3681641 Z" /><path
         id="path3714"
         d="m 8.566133,-7.1728516 h 0.9814453 v 2.9638672 h 3.7304687 v -2.9638672 h 0.981445 V 0 H 13.278047 V -3.3544922 H 9.5475783 V 0 H 8.566133 Z" /></g></g><path
     id="path114"
     style="fill:#000000;fill-opacity:1;fill-rule:nonzero;stroke:none;stroke-width:0.125"
     d="m 418.2728,309.41451 h -1.875 v -28.4375 l 0.9375,-3.125 0.9375,5.78125" /><g
     transform="matrix(3.125,0,0,-3.125,-59.383461,444.41451)"
     id="g116"><g
       id="text118"
       style="font-variant:normal;font-weight:normal;font-size:10px;font-family:Helvetica;-inkscape-font-specification:Helvetica;writing-mode:lr-tb;fill:#000000;fill-opacity:1;fill-rule:nonzero;stroke:none"
       transform="matrix(1,0,0,-1,126.3,63.5)"><path
         id="path3717"
         d="m 3.8574219,-7.3681641 q 1.899414,0 2.8125,1.2207032 0.7128906,0.9521484 0.7128906,2.4365234 0,1.6064453 -0.8154297,2.6708984 -0.9570312,1.25000004 -2.7294922,1.25000004 -1.6552734,0 -2.602539,-1.09375 Q 0.390625,-1.9384766 0.390625,-3.5498047 q 0,-1.4550781 0.7226562,-2.4902344 0.9277344,-1.328125 2.7441407,-1.328125 z m 0.097656,6.70898441 q 1.2841797,0 1.8554688,-0.91796871 0.576172,-0.9228516 0.576172,-2.1191407 0,-1.2646484 -0.6640625,-2.0361328 -0.6591796,-0.7714843 -1.8066406,-0.7714843 -1.1132812,0 -1.8164062,0.7666015 -0.703125,0.7617188 -0.703125,2.2509766 0,1.1914062 0.6005859,2.0117187 0.6054688,0.81542971 1.9580076,0.81542971 z M 3.8867189,-7.3681641 Z" /><path
         id="path3719"
         d="m 8.566133,-7.1728516 h 0.9814453 v 2.9638672 h 3.7304687 v -2.9638672 h 0.981445 V 0 H 13.278047 V -3.3544922 H 9.5475783 V 0 H 8.566133 Z" /></g></g><path
     id="path122"
     style="fill:#000000;fill-opacity:1;fill-rule:nonzero;stroke:none;stroke-width:0.125"
     d="m 345.30405,252.22701 h 1.875 v 22.5 l -0.9375,3.125 -0.9375,-6.875" /><g
     transform="matrix(3.125,0,0,-3.125,-59.383461,444.41451)"
     id="g124"><g
       id="text126"
       style="font-variant:normal;font-weight:normal;font-size:10px;font-family:Helvetica;-inkscape-font-specification:Helvetica;writing-mode:lr-tb;fill:#000000;fill-opacity:1;fill-rule:nonzero;stroke:none"
       transform="matrix(1,0,0,-1,126.6,91.6)"><path
         id="path3722"
         d="m 3.7841797,-7.3681641 q 1.3623047,0 2.1142578,0.7177735 0.7519531,0.7177734 0.8349609,1.6308594 H 5.7861328 Q 5.625,-5.7128906 5.1416016,-6.1181641 4.6630859,-6.5234375 3.7939453,-6.5234375 q -1.0595703,0 -1.7138672,0.7470703 -0.649414,0.7421875 -0.649414,2.2802734 0,1.2597657 0.5859375,2.0458985 0.5908203,0.78124999 1.7578125,0.78124999 1.0742187,0 1.6357421,-0.82519529 0.2978516,-0.4345703 0.444336,-1.1425782 h 0.9472656 q -0.1269531,1.1328126 -0.8398437,1.89941411 -0.8544922,0.92285156 -2.3046875,0.92285156 -1.25,0 -2.0996094,-0.75683593 -1.11816407,-1.00097654 -1.11816407,-3.09082034 0,-1.586914 0.83984377,-2.602539 Q 2.1875,-7.3681641 3.7841797,-7.3681641 Z m -0.1953125,0 z" /><path
         id="path3724"
         d="m 8.0061326,-7.1728516 h 0.9814453 v 2.9638672 h 3.7304691 v -2.9638672 h 0.981445 V 0 H 12.718047 V -3.3544922 H 8.9875779 V 0 H 8.0061326 Z" /></g><g
       id="text130"
       style="font-variant:normal;font-weight:normal;font-size:7.5px;font-family:Helvetica;-inkscape-font-specification:Helvetica;writing-mode:lr-tb;fill:#000000;fill-opacity:1;fill-rule:nonzero;stroke:none"
       transform="matrix(1,0,0,-1,141.0398,89.725)"><path
         id="path3727"
         d="m 0.234375,0 q 0.0366211,-0.67749023 0.27832031,-1.1791992 0.24536133,-0.501709 0.95214839,-0.9118653 l 0.7031251,-0.4064941 q 0.4724121,-0.2746582 0.6628417,-0.46875 0.300293,-0.3039551 0.300293,-0.6958008 0,-0.4577636 -0.2746582,-0.7250976 -0.2746582,-0.2709961 -0.7324219,-0.2709961 -0.6774902,0 -0.9375,0.5126953 -0.1391601,0.2746582 -0.1538086,0.7617187 H 0.36254883 q 0.0109863,-0.6848144 0.25268554,-1.1169433 0.42846683,-0.7617188 1.51245113,-0.7617188 0.900879,0 1.3146973,0.4870606 0.4174805,0.4870605 0.4174805,1.0839843 0,0.6298829 -0.4431153,1.0766602 -0.2563476,0.2600098 -0.9191894,0.6298828 l -0.501709,0.2783203 q -0.3588867,0.1977539 -0.5639648,0.3771973 -0.366211,0.3186035 -0.46142582,0.70678711 H 3.8342285 V 0 Z" /></g><g
       id="text134"
       style="font-variant:normal;font-weight:normal;font-size:10px;font-family:Helvetica;-inkscape-font-specification:Helvetica;writing-mode:lr-tb;fill:#000000;fill-opacity:1;fill-rule:nonzero;stroke:none"
       transform="matrix(1,0,0,-1,145.20972,91.6)"><path
         id="path3730"
         d="m 3.8574219,-7.3681641 q 1.899414,0 2.8125,1.2207032 0.7128906,0.9521484 0.7128906,2.4365234 0,1.6064453 -0.8154297,2.6708984 -0.9570312,1.25000004 -2.7294922,1.25000004 -1.6552734,0 -2.602539,-1.09375 Q 0.390625,-1.9384766 0.390625,-3.5498047 q 0,-1.4550781 0.7226562,-2.4902344 0.9277344,-1.328125 2.7441407,-1.328125 z m 0.097656,6.70898441 q 1.2841797,0 1.8554688,-0.91796871 0.576172,-0.9228516 0.576172,-2.1191407 0,-1.2646484 -0.6640625,-2.0361328 -0.6591796,-0.7714843 -1.8066406,-0.7714843 -1.1132812,0 -1.8164062,0.7666015 -0.703125,0.7617188 -0.703125,2.2509766 0,1.1914062 0.6005859,2.0117187 0.6054688,0.81542971 1.9580076,0.81542971 z M 3.8867189,-7.3681641 Z" /><path
         id="path3732"
         d="m 8.566133,-7.1728516 h 0.9814453 v 2.9638672 h 3.7304687 v -2.9638672 h 0.981445 V 0 H 13.278047 V -3.3544922 H 9.5475783 V 0 H 8.566133 Z" /></g></g><path
     id="path138"
     style="fill:#000000;fill-opacity:1;fill-rule:nonzero;stroke:none;stroke-width:0.125"
     d="m 345.30405,165.19576 h 1.875 v 26.40625 l -0.9375,0.9375 -0.9375,-0.3125" /></svg>
