<?xml version="1.0" encoding="UTF-8" standalone="no"?>
<svg
   width="359px"
   height="75px"
   viewBox="0 0 359 75"
   style="background-color: #ffffff00"
   version="1.1"
   id="svg55"
   sodipodi:docname="SN2 reaction.svg"
   inkscape:version="1.3 (0e150ed6c4, 2023-07-21)"
   xmlns:inkscape="http://www.inkscape.org/namespaces/inkscape"
   xmlns:sodipodi="http://sodipodi.sourceforge.net/DTD/sodipodi-0.dtd"
   xmlns="http://www.w3.org/2000/svg"
   xmlns:svg="http://www.w3.org/2000/svg">
  <defs
     id="defs55" />
  <sodipodi:namedview
     id="namedview55"
     pagecolor="#ffffff"
     bordercolor="#999999"
     borderopacity="1"
     inkscape:showpageshadow="2"
     inkscape:pageopacity="0"
     inkscape:pagecheckerboard="0"
     inkscape:deskcolor="#d1d1d1"
     inkscape:zoom="2.5920683"
     inkscape:cx="189.42402"
     inkscape:cy="51.889065"
     inkscape:window-width="1920"
     inkscape:window-height="1009"
     inkscape:window-x="-8"
     inkscape:window-y="-8"
     inkscape:window-maximized="1"
     inkscape:current-layer="svg55" />
  <path
     d="M 0.87890625,0 56.25,-74.609375 7.421875,-143.16406 h 22.558594 l 25.976562,36.71875 q 8.105469,11.425779 11.523438,17.578123 4.785156,-7.8125 11.328125,-16.308593 l 28.808596,-37.98828 h 20.60547 L 77.929687,-75.683594 132.12891,0 h -23.4375 L 72.65625,-51.074219 q -3.027344,-4.394531 -6.25,-9.570312 -4.785156,7.8125 -6.835938,10.742187 L 23.632812,0 Z"
     id="text1"
     style="font-size:200px;font-family:Arial"
     transform="matrix(0.0666667 0 0 0.0666667 87.5486 42.02)"
     aria-label="X" />
  <path
     stroke="none"
     fill="#000000"
     transform="matrix(0.0666667 0 0 0.0666667 -164.667 -603)"
     d="M 3533.69,9603.09 L 3529.83,9597.3 L 3533.17,9591.48 L 3755.23,9591.3 L 3755.23,9603.3 L 3533.69,9603.09 Z "
     id="path1" />
  <path
     d="M 16.015625,0 V -143.16406 H 34.960937 V -84.375 H 109.375 v -58.78906 h 18.94531 V 0 H 109.375 V -67.480469 H 34.960937 V 0 Z"
     id="text2"
     style="font-size:200px;font-family:Arial"
     transform="matrix(0.0666667 0 0 0.0666667 60.3181 62.6325)"
     aria-label="H" />
  <path
     stroke="none"
     fill="#000000"
     transform="matrix(0.0666667 0 0 0.0666667 -164.667 -603)"
     d="M 3523.77,9598.57 L 3529.83,9597.3 L 3533.69,9603.09 L 3503.69,9810.77 L 3445.74,9795.24 L 3523.77,9598.57 Z "
     id="path2" />
  <path
     d="M 16.015625,0 V -143.16406 H 34.960937 V -84.375 H 109.375 v -58.78906 h 18.94531 V 0 H 109.375 V -67.480469 H 34.960937 V 0 Z"
     id="text3"
     style="font-size:200px;font-family:Arial"
     transform="matrix(0.0666667 0 0 0.0666667 39.9809 23.5393)"
     aria-label="H" />
  <path
     d="m 6.2988281,-28.344727 13.1835939,-1.757812 q 2.270508,11.206055 7.69043,16.186523 5.493164,4.9072269 13.330078,4.9072269 9.301757,0 15.673828,-6.4453129 6.445312,-6.445312 6.445312,-15.966796 0,-9.082032 -5.932617,-14.941407 -5.932617,-5.932617 -15.087891,-5.932617 -3.735351,0 -9.301757,1.464844 l 1.464843,-11.572266 q 1.31836,0.146485 2.124024,0.146485 8.422851,0 15.161133,-4.394532 6.738281,-4.394531 6.738281,-13.549804 0,-7.250977 -4.907227,-12.011719 -4.907226,-4.760742 -12.670898,-4.760742 -7.69043,0 -12.817383,4.833984 -5.126953,4.833985 -6.591797,14.501953 l -13.1835935,-2.34375 q 2.4169925,-13.256836 10.9863285,-20.507811 8.569336,-7.32422 21.313476,-7.32422 8.789063,0 16.186524,3.80859 7.397461,3.73536 11.279296,10.25391 3.955079,6.518555 3.955079,13.842773 0,6.958008 -3.735352,12.670899 -3.735352,5.712891 -11.05957,9.082031 9.521484,2.197266 14.794922,9.155274 5.273437,6.884765 5.273437,17.285156 0,14.0625 -10.253906,23.8769529 -10.253906,9.741211 -25.927735,9.741211 -14.135742,0 -23.510742,-8.4228516 Q 7.6171875,-14.941406 6.2988281,-28.344727 Z"
     id="text4"
     style="font-size:150px;font-family:Arial"
     transform="matrix(0.0666667 0 0 0.0666667 49.6098 26.4727)"
     aria-label="3" />
  <path
     d="m 117.57813,-50.195312 18.94531,4.785156 q -5.95703,23.339844 -21.48438,35.644531 -15.429685,12.2070313 -37.792966,12.2070313 -23.144532,0 -37.695313,-9.375 Q 25.097656,-16.40625 17.480469,-34.277344 9.9609375,-52.148437 9.9609375,-72.65625 q 0,-22.363281 8.4960935,-38.96484 8.59375,-16.69922 24.316406,-25.29297 15.820313,-8.69141 34.765625,-8.69141 21.484375,0 36.132818,10.9375 14.64843,10.9375 20.41015,30.76172 l -18.65234,4.394531 q -4.98047,-15.625001 -14.45313,-22.753911 -9.472654,-7.1289 -23.828123,-7.1289 -16.503906,0 -27.636718,7.91015 -11.035157,7.91016 -15.527344,21.28907 -4.492188,13.281248 -4.492188,27.441404 0,18.261719 5.273438,31.933594 5.371094,13.574218 16.601562,20.3125 11.230469,6.738281 24.316407,6.738281 15.917968,0 26.953126,-9.179688 11.03516,-9.179687 14.94141,-27.246093 z"
     id="text5"
     style="font-size:200px;font-family:Arial"
     transform="matrix(0.0666667 0 0 0.0666667 55.1713 23.5393)"
     aria-label="C" />
  <path
     stroke="none"
     fill="#000000"
     transform="matrix(0.0666667 0 0 0.0666667 -164.667 -603)"
     d="M 3533.17,9591.48 L 3529.83,9597.3 L 3523.77,9598.57 L 3421.98,9422.48 L 3432.37,9416.48 L 3533.17,9591.48 Z "
     id="path5" />
  <path
     d="M 16.015625,0 V -143.16406 H 34.960937 V -84.375 H 109.375 v -58.78906 h 18.94531 V 0 H 109.375 V -67.480469 H 34.960937 V 0 Z"
     id="text6"
     style="font-size:200px;font-family:Arial"
     transform="matrix(0.0666667 0 0 0.0666667 47.3605 52.6898)"
     aria-label="H" />
  <path
     stroke="none"
     fill="#000000"
     transform="matrix(0.0666667 0 0 0.0666667 -164.667 -603)"
     d="M 3483.46,9617.15 L 3489.46,9627.54 L 3479.97,9635.12 L 3472.15,9621.57 L 3483.46,9617.15 Z "
     id="path6" />
  <path
     stroke="none"
     fill="#000000"
     transform="matrix(0.0666667 0 0 0.0666667 -164.667 -603)"
     d="M 3414.57,9644.11 L 3431.66,9673.71 L 3422.18,9681.29 L 3403.27,9648.54 L 3414.57,9644.11 Z "
     id="path7" />
  <path
     stroke="none"
     fill="#000000"
     transform="matrix(0.0666667 0 0 0.0666667 -164.667 -603)"
     d="M 3345.68,9671.08 L 3373.86,9719.89 L 3364.38,9727.47 L 3334.38,9675.5 L 3345.68,9671.08 Z "
     id="path8" />
  <path
     stroke="none"
     fill="#000000"
     transform="matrix(0.0666667 0 0 0.0666667 -164.667 -603)"
     d="M 4370.73,9610.66 L 4064.46,9610.66 L 4064.46,9598.66 L 4370.73,9598.66 Z "
     id="path9" />
  <path
     d="M 15.234375,0 V -143.16406 H 34.667969 L 109.86328,-30.761719 V -143.16406 h 18.16406 V 0 H 108.59375 L 33.398437,-112.5 V 0 Z M 225.58594,0 V -15.234375 Q 213.47656,2.34375 192.67578,2.34375 q -9.17969,0 -17.1875,-3.515625 -7.91016,-3.515625 -11.81641,-8.7890625 -3.80859,-5.3710935 -5.37109,-13.0859375 -1.07422,-5.175781 -1.07422,-16.40625 v -64.257815 h 17.57813 v 57.519534 q 0,13.769531 1.07422,18.554687 1.66015,6.933594 7.03125,10.9375 5.37109,3.90625 13.28125,3.90625 7.91015,0 14.84375,-4.003906 6.93359,-4.101562 9.76562,-11.035156 2.92969,-7.03125 2.92969,-20.3125 v -55.566409 h 17.57812 V 0 Z"
     id="text9"
     style="font-size:200px;font-family:Arial"
     transform="matrix(0.0666667 0 0 0.0666667 3.4798 47.6344)"
     aria-label="Nu" />
  <path
     stroke="#ff0000"
     stroke-width="12"
     fill="none"
     transform="matrix(0.0666667 0 0 0.0666667 -164.667 -603)"
     d="M 3430.64,9538.04 C 3275.32,9433.27 3054.76,9441.75 2907.93,9558.12 "
     id="path10" />
  <path
     stroke="none"
     fill="#ff0000"
     transform="matrix(0.0666667 0 0 0.0666667 -164.667 -603)"
     d="M 3496.14,9592.03 C 3496.14,9592.03 3404.85,9550.04 3404.85,9550.04 C 3404.85,9550.04 3423.37,9546.76 3430.64,9538.04 C 3437.9,9529.32 3437.71,9510.61 3437.71,9510.61 C 3437.71,9510.61 3496.14,9592.03 3496.14,9592.03 C 3496.14,9592.03 3496.14,9592.03 3496.14,9592.03 "
     id="path11" />
  <path
     stroke="#ff0000"
     stroke-width="1"
     fill="none"
     transform="matrix(0.0666667 0 0 0.0666667 -164.667 -603)"
     d="M 3496.14,9592.03 C 3496.14,9592.03 3404.85,9550.04 3404.85,9550.04 C 3404.85,9550.04 3423.37,9546.76 3430.64,9538.04 C 3437.9,9529.32 3437.71,9510.61 3437.71,9510.61 C 3437.71,9510.61 3496.14,9592.03 3496.14,9592.03 C 3496.14,9592.03 3496.14,9592.03 3496.14,9592.03 "
     id="path12" />
  <path
     stroke="#ff0000"
     stroke-width="12"
     fill="none"
     transform="matrix(0.0666667 0 0 0.0666667 -164.667 -603)"
     d="M 3657.14,9648.87 C 3639.63,9714.21 3678.45,9781.45 3743.79,9798.95 C 3778.2,9808.17 3816.43,9801.46 3845.64,9781.07 "
     id="path13" />
  <path
     stroke="none"
     fill="#ff0000"
     transform="matrix(0.0666667 0 0 0.0666667 -164.667 -603)"
     d="M 3893.87,9712.3 C 3893.87,9712.3 3859.4,9805.68 3859.4,9805.68 C 3859.4,9805.68 3854.68,9787.54 3845.64,9781.07 C 3836.61,9774.61 3818.1,9776.12 3818.1,9776.12 C 3818.1,9776.12 3893.87,9712.3 3893.87,9712.3 C 3893.87,9712.3 3893.87,9712.3 3893.87,9712.3 "
     id="path14" />
  <path
     stroke="#ff0000"
     stroke-width="1"
     fill="none"
     transform="matrix(0.0666667 0 0 0.0666667 -164.667 -603)"
     d="M 3893.87,9712.3 C 3893.87,9712.3 3859.4,9805.68 3859.4,9805.68 C 3859.4,9805.68 3854.68,9787.54 3845.64,9781.07 C 3836.61,9774.61 3818.1,9776.12 3818.1,9776.12 C 3818.1,9776.12 3893.87,9712.3 3893.87,9712.3 C 3893.87,9712.3 3893.87,9712.3 3893.87,9712.3 "
     id="path15" />
  <path
     d="M 0.87890625,0 56.25,-74.609375 7.421875,-143.16406 h 22.558594 l 25.976562,36.71875 q 8.105469,11.425779 11.523438,17.578123 4.785156,-7.8125 11.328125,-16.308593 l 28.808596,-37.98828 h 20.60547 L 77.929687,-75.683594 132.12891,0 h -23.4375 L 72.65625,-51.074219 q -3.027344,-4.394531 -6.25,-9.570312 -4.785156,7.8125 -6.835938,10.742187 L 23.632812,0 Z"
     id="text15"
     style="font-size:200px;font-family:Arial"
     transform="matrix(0.0666667 0 0 0.0666667 194.102 42.836)"
     aria-label="X" />
  <path
     stroke="none"
     fill="#000000"
     transform="matrix(0.0666667 0 0 0.0666667 -164.667 -603)"
     d="M 5081.3,9615.25 L 5074.58,9609.54 L 5080.31,9603.79 L 5130.37,9603.54 L 5130.37,9615.54 L 5081.3,9615.25 Z "
     id="path16" />
  <path
     stroke="none"
     fill="#000000"
     transform="matrix(0.0666667 0 0 0.0666667 -164.667 -603)"
     d="M 5186.16,9615.54 L 5186.16,9603.54 L 5241.95,9603.54 L 5241.95,9615.54 L 5186.16,9615.54 Z "
     id="path17" />
  <path
     stroke="none"
     fill="#000000"
     transform="matrix(0.0666667 0 0 0.0666667 -164.667 -603)"
     d="M 5297.74,9615.54 L 5297.74,9603.54 L 5353.53,9603.54 L 5353.53,9615.54 L 5297.74,9615.54 Z "
     id="path18" />
  <path
     d="M 16.015625,0 V -143.16406 H 34.960937 V -84.375 H 109.375 v -58.78906 h 18.94531 V 0 H 109.375 V -67.480469 H 34.960937 V 0 Z"
     id="text18"
     style="font-size:200px;font-family:Arial"
     transform="matrix(0.0666667 0 0 0.0666667 175.271 66.8975)"
     aria-label="H" />
  <path
     stroke="none"
     fill="#000000"
     transform="matrix(0.0666667 0 0 0.0666667 -164.667 -603)"
     d="M 5070.57,9615.38 L 5074.58,9609.54 L 5081.3,9615.25 L 5172.57,9859.36 L 5114.62,9874.89 L 5070.57,9615.38 Z "
     id="path19" />
  <path
     d="m 117.57813,-50.195312 18.94531,4.785156 q -5.95703,23.339844 -21.48438,35.644531 -15.429685,12.2070313 -37.792966,12.2070313 -23.144532,0 -37.695313,-9.375 Q 25.097656,-16.40625 17.480469,-34.277344 9.9609375,-52.148437 9.9609375,-72.65625 q 0,-22.363281 8.4960935,-38.96484 8.59375,-16.69922 24.316406,-25.29297 15.820313,-8.69141 34.765625,-8.69141 21.484375,0 36.132818,10.9375 14.64843,10.9375 20.41015,30.76172 l -18.65234,4.394531 q -4.98047,-15.625001 -14.45313,-22.753911 -9.472654,-7.1289 -23.828123,-7.1289 -16.503906,0 -27.636718,7.91015 -11.035157,7.91016 -15.527344,21.28907 -4.492188,13.281248 -4.492188,27.441404 0,18.261719 5.273438,31.933594 5.371094,13.574218 16.601562,20.3125 11.230469,6.738281 24.316407,6.738281 15.917968,0 26.953126,-9.179688 11.03516,-9.179687 14.94141,-27.246093 z M 160.44922,0 v -143.16406 h 18.94531 V -84.375 h 74.41406 v -58.78906 h 18.94532 V 0 H 253.80859 V -67.480469 H 179.39453 V 0 Z"
     id="text19"
     style="font-size:200px;font-family:Arial"
     transform="matrix(0.0666667 0 0 0.0666667 168.824 17.9257)"
     aria-label="CH" />
  <path
     d="m 6.2988281,-28.344727 13.1835939,-1.757812 q 2.270508,11.206055 7.69043,16.186523 5.493164,4.9072269 13.330078,4.9072269 9.301757,0 15.673828,-6.4453129 6.445312,-6.445312 6.445312,-15.966796 0,-9.082032 -5.932617,-14.941407 -5.932617,-5.932617 -15.087891,-5.932617 -3.735351,0 -9.301757,1.464844 l 1.464843,-11.572266 q 1.31836,0.146485 2.124024,0.146485 8.422851,0 15.161133,-4.394532 6.738281,-4.394531 6.738281,-13.549804 0,-7.250977 -4.907227,-12.011719 -4.907226,-4.760742 -12.670898,-4.760742 -7.69043,0 -12.817383,4.833984 -5.126953,4.833985 -6.591797,14.501953 l -13.1835935,-2.34375 q 2.4169925,-13.256836 10.9863285,-20.507811 8.569336,-7.32422 21.313476,-7.32422 8.789063,0 16.186524,3.80859 7.397461,3.73536 11.279296,10.25391 3.955079,6.518555 3.955079,13.842773 0,6.958008 -3.735352,12.670899 -3.735352,5.712891 -11.05957,9.082031 9.521484,2.197266 14.794922,9.155274 5.273437,6.884765 5.273437,17.285156 0,14.0625 -10.253906,23.8769529 -10.253906,9.741211 -25.927735,9.741211 -14.135742,0 -23.510742,-8.4228516 Q 7.6171875,-14.941406 6.2988281,-28.344727 Z"
     id="text20"
     style="font-size:150px;font-family:Arial"
     transform="matrix(0.0666667 0 0 0.0666667 188.082 20.8591)"
     aria-label="3" />
  <path
     stroke="none"
     fill="#000000"
     transform="matrix(0.0666667 0 0 0.0666667 -164.667 -603)"
     d="M 5080.31,9603.79 L 5074.58,9609.54 L 5068.84,9603.77 L 5068.58,9349.72 L 5080.58,9349.72 L 5080.31,9603.79 Z "
     id="path20" />
  <path
     d="M 16.015625,0 V -143.16406 H 34.960937 V -84.375 H 109.375 v -58.78906 h 18.94531 V 0 H 109.375 V -67.480469 H 34.960937 V 0 Z"
     id="text21"
     style="font-size:200px;font-family:Arial"
     transform="matrix(0.0666667 0 0 0.0666667 162.377 66.8975)"
     aria-label="H" />
  <path
     stroke="none"
     fill="#000000"
     transform="matrix(0.0666667 0 0 0.0666667 -164.667 -603)"
     d="M 5055.82,9656.38 L 5067.41,9659.48 L 5065.59,9671.42 L 5051.42,9667.63 L 5055.82,9656.38 Z "
     id="path21" />
  <path
     stroke="none"
     fill="#000000"
     transform="matrix(0.0666667 0 0 0.0666667 -164.667 -603)"
     d="M 5037.11,9704.28 L 5059.65,9710.32 L 5057.83,9722.25 L 5032.72,9715.52 L 5037.11,9704.28 Z "
     id="path22" />
  <path
     stroke="none"
     fill="#000000"
     transform="matrix(0.0666667 0 0 0.0666667 -164.667 -603)"
     d="M 5018.41,9752.18 L 5051.9,9761.15 L 5050.08,9773.08 L 5014.02,9763.42 L 5018.41,9752.18 Z "
     id="path23" />
  <path
     stroke="none"
     fill="#000000"
     transform="matrix(0.0666667 0 0 0.0666667 -164.667 -603)"
     d="M 4999.71,9800.07 L 5044.15,9811.98 L 5042.33,9823.92 L 4995.32,9811.32 L 4999.71,9800.07 Z "
     id="path24" />
  <path
     stroke="none"
     fill="#000000"
     transform="matrix(0.0666667 0 0 0.0666667 -164.667 -603)"
     d="M 4981.01,9847.97 L 5036.39,9862.81 L 5034.57,9874.75 L 4976.62,9859.22 L 4981.01,9847.97 Z "
     id="path25" />
  <path
     d="M 15.234375,0 V -143.16406 H 34.667969 L 109.86328,-30.761719 V -143.16406 h 18.16406 V 0 H 108.59375 L 33.398437,-112.5 V 0 Z M 225.58594,0 V -15.234375 Q 213.47656,2.34375 192.67578,2.34375 q -9.17969,0 -17.1875,-3.515625 -7.91016,-3.515625 -11.81641,-8.7890625 -3.80859,-5.3710935 -5.37109,-13.0859375 -1.07422,-5.175781 -1.07422,-16.40625 v -64.257815 h 17.57813 v 57.519534 q 0,13.769531 1.07422,18.554687 1.66015,6.933594 7.03125,10.9375 5.37109,3.90625 13.28125,3.90625 7.91015,0 14.84375,-4.003906 6.93359,-4.101562 9.76562,-11.035156 2.92969,-7.03125 2.92969,-20.3125 v -55.566409 h 17.57812 V 0 Z"
     id="text25"
     style="font-size:200px;font-family:Arial"
     transform="matrix(0.0666667 0 0 0.0666667 135.392 42.836)"
     aria-label="Nu" />
  <path
     stroke="none"
     fill="#000000"
     transform="matrix(0.0666667 0 0 0.0666667 -164.667 -603)"
     d="M 5068.84,9603.77 L 5074.58,9609.54 L 5070.57,9615.38 L 5014.44,9615.54 L 5014.44,9603.54 L 5068.84,9603.77 Z "
     id="path26" />
  <path
     stroke="none"
     fill="#000000"
     transform="matrix(0.0666667 0 0 0.0666667 -164.667 -603)"
     d="M 4954.3,9603.54 L 4954.3,9615.54 L 4894.16,9615.54 L 4894.16,9603.54 L 4954.3,9603.54 Z "
     id="path27" />
  <path
     stroke="none"
     fill="#000000"
     transform="matrix(0.0666667 0 0 0.0666667 -164.667 -603)"
     d="M 4834.01,9603.54 L 4834.01,9615.54 L 4773.87,9615.54 L 4773.87,9603.54 L 4834.01,9603.54 Z "
     id="path28" />
  <path
     stroke="#000000"
     stroke-width="12"
     fill="none"
     transform="matrix(0.0666667 0 0 0.0666667 -164.667 -603)"
     d="M 5555.7,9099.46 L 5629.6,9099.46 "
     id="path29" />
  <path
     stroke="#000000"
     stroke-width="12"
     fill="none"
     transform="matrix(0.0666667 0 0 0.0666667 -164.667 -603)"
     d="M 5629.6,9099.46 L 5629.6,10116.2 "
     id="path30" />
  <path
     stroke="#000000"
     stroke-width="12"
     fill="none"
     transform="matrix(0.0666667 0 0 0.0666667 -164.667 -603)"
     d="M 5629.6,10116.2 L 5555.7,10116.2 "
     id="path31" />
  <path
     stroke="#000000"
     stroke-width="12"
     fill="none"
     transform="matrix(0.0666667 0 0 0.0666667 -164.667 -603)"
     d="M 4444.63,10116.2 L 4370.73,10116.2 "
     id="path32" />
  <path
     stroke="#000000"
     stroke-width="12"
     fill="none"
     transform="matrix(0.0666667 0 0 0.0666667 -164.667 -603)"
     d="M 4370.73,10116.2 L 4370.73,9099.46 "
     id="path33" />
  <path
     stroke="#000000"
     stroke-width="12"
     fill="none"
     transform="matrix(0.0666667 0 0 0.0666667 -164.667 -603)"
     d="M 4370.73,9099.46 L 4444.63,9099.46 "
     id="path34" />
  <path
     stroke="none"
     fill="#000000"
     transform="matrix(0.0666667 0 0 0.0666667 -164.667 -603)"
     d="M 5739.81,9107.84 L 5739.81,9295.24 L 5729.81,9295.24 L 5729.81,9107.84 Z "
     id="path35" />
  <path
     stroke="none"
     fill="#000000"
     transform="matrix(0.0666667 0 0 0.0666667 -164.667 -603)"
     d="M 5684.96,9152.69 L 5784.66,9152.69 L 5784.66,9162.69 L 5684.96,9162.69 Z "
     id="path36" />
  <path
     stroke="none"
     fill="#000000"
     transform="matrix(0.0666667 0 0 0.0666667 -164.667 -603)"
     d="M 5684.96,9240.39 L 5784.66,9240.39 L 5784.66,9250.39 L 5684.96,9250.39 Z "
     id="path37" />
  <path
     stroke="#000000"
     stroke-width="10"
     fill="none"
     transform="matrix(0.0666667 0 0 0.0666667 -164.667 -603)"
     d="M 2764.37,9578.18 A 71.7999,71.7999 0 1 0 2907.97,9578.18A 71.7999,71.7999 0 1 0 2764.37,9578.18Z "
     id="path38" />
  <path
     stroke="none"
     fill="#000000"
     transform="matrix(0.0666667 0 0 0.0666667 -164.667 -603)"
     d="M 2796.51,9572.85 L 2875.17,9572.85 L 2875.17,9582.85 L 2796.51,9582.85 Z "
     id="path39" />
  <path
     stroke="none"
     fill="#000000"
     transform="matrix(0.0666667 0 0 0.0666667 -164.667 -603)"
     d="M 5956,9610.66 L 5633.21,9610.66 L 5633.21,9598.66 L 5956,9598.66 Z "
     id="path40" />
  <path
     stroke="none"
     fill="#000000"
     transform="matrix(0.0666667 0 0 0.0666667 -164.667 -603)"
     d="M 6060,9604.66 C 6060,9604.66 5940,9635.66 5940,9635.66 C 5940,9635.66 5955,9618.23 5955,9604.66 C 5955,9590.66 5940,9572.67 5940,9572.67 C 5940,9572.67 6060,9604.66 6060,9604.66 C 6060,9604.66 6060,9604.66 6060,9604.66 "
     id="path41" />
  <path
     stroke="#000000"
     stroke-width="1"
     fill="none"
     transform="matrix(0.0666667 0 0 0.0666667 -164.667 -603)"
     d="M 6060,9604.66 C 6060,9604.66 5940,9635.66 5940,9635.66 C 5940,9635.66 5955,9618.23 5955,9604.66 C 5955,9590.66 5940,9572.67 5940,9572.67 C 5940,9572.67 6060,9604.66 6060,9604.66 C 6060,9604.66 6060,9604.66 6060,9604.66 "
     id="path42" />
  <path
     stroke="none"
     fill="#000000"
     transform="matrix(0.0666667 0 0 0.0666667 -164.667 -603)"
     d="M 6843.29,9627.6 L 6849.29,9617.21 L 6860.59,9621.64 L 6852.77,9635.17 L 6843.29,9627.6 Z "
     id="path43" />
  <path
     stroke="none"
     fill="#000000"
     transform="matrix(0.0666667 0 0 0.0666667 -164.667 -603)"
     d="M 6901.24,9673.87 L 6918.34,9644.26 L 6929.63,9648.69 L 6910.73,9681.44 L 6901.24,9673.87 Z "
     id="path44" />
  <path
     stroke="none"
     fill="#000000"
     transform="matrix(0.0666667 0 0 0.0666667 -164.667 -603)"
     d="M 6959.2,9720.14 L 6987.38,9671.32 L 6998.68,9675.75 L 6968.68,9727.71 L 6959.2,9720.14 Z "
     id="path45" />
  <path
     d="M 16.015625,0 V -143.16406 H 34.960937 V -84.375 H 109.375 v -58.78906 h 18.94531 V 0 H 109.375 V -67.480469 H 34.960937 V 0 Z"
     id="text45"
     style="font-size:200px;font-family:Arial"
     transform="matrix(0.0666667 0 0 0.0666667 302.52 52.6898)"
     aria-label="H" />
  <path
     stroke="none"
     fill="#000000"
     transform="matrix(0.0666667 0 0 0.0666667 -164.667 -603)"
     d="M 6808.87,9598.58 L 6802.81,9597.3 L 6799.47,9591.46 L 6901.95,9413.58 L 6912.34,9419.58 L 6808.87,9598.58 Z "
     id="path46" />
  <path
     d="m 117.57813,-50.195312 18.94531,4.785156 q -5.95703,23.339844 -21.48438,35.644531 -15.429685,12.2070313 -37.792966,12.2070313 -23.144532,0 -37.695313,-9.375 Q 25.097656,-16.40625 17.480469,-34.277344 9.9609375,-52.148437 9.9609375,-72.65625 q 0,-22.363281 8.4960935,-38.96484 8.59375,-16.69922 24.316406,-25.29297 15.820313,-8.69141 34.765625,-8.69141 21.484375,0 36.132818,10.9375 14.64843,10.9375 20.41015,30.76172 l -18.65234,4.394531 q -4.98047,-15.625001 -14.45313,-22.753911 -9.472654,-7.1289 -23.828123,-7.1289 -16.503906,0 -27.636718,7.91015 -11.035157,7.91016 -15.527344,21.28907 -4.492188,13.281248 -4.492188,27.441404 0,18.261719 5.273438,31.933594 5.371094,13.574218 16.601562,20.3125 11.230469,6.738281 24.316407,6.738281 15.917968,0 26.953126,-9.179688 11.03516,-9.179687 14.94141,-27.246093 z M 160.44922,0 v -143.16406 h 18.94531 V -84.375 h 74.41406 v -58.78906 h 18.94532 V 0 H 253.80859 V -67.480469 H 179.39453 V 0 Z"
     id="text46"
     style="font-size:200px;font-family:Arial"
     transform="matrix(0.0666667 0 0 0.0666667 294.709 23.5393)"
     aria-label="CH" />
  <path
     d="m 6.2988281,-28.344727 13.1835939,-1.757812 q 2.270508,11.206055 7.69043,16.186523 5.493164,4.9072269 13.330078,4.9072269 9.301757,0 15.673828,-6.4453129 6.445312,-6.445312 6.445312,-15.966796 0,-9.082032 -5.932617,-14.941407 -5.932617,-5.932617 -15.087891,-5.932617 -3.735351,0 -9.301757,1.464844 l 1.464843,-11.572266 q 1.31836,0.146485 2.124024,0.146485 8.422851,0 15.161133,-4.394532 6.738281,-4.394531 6.738281,-13.549804 0,-7.250977 -4.907227,-12.011719 -4.907226,-4.760742 -12.670898,-4.760742 -7.69043,0 -12.817383,4.833984 -5.126953,4.833985 -6.591797,14.501953 l -13.1835935,-2.34375 q 2.4169925,-13.256836 10.9863285,-20.507811 8.569336,-7.32422 21.313476,-7.32422 8.789063,0 16.186524,3.80859 7.397461,3.73536 11.279296,10.25391 3.955079,6.518555 3.955079,13.842773 0,6.958008 -3.735352,12.670899 -3.735352,5.712891 -11.05957,9.082031 9.521484,2.197266 14.794922,9.155274 5.273437,6.884765 5.273437,17.285156 0,14.0625 -10.253906,23.8769529 -10.253906,9.741211 -25.927735,9.741211 -14.135742,0 -23.510742,-8.4228516 Q 7.6171875,-14.941406 6.2988281,-28.344727 Z"
     id="text47"
     style="font-size:150px;font-family:Arial"
     transform="matrix(0.0666667 0 0 0.0666667 313.967 26.4727)"
     aria-label="3" />
  <path
     stroke="none"
     fill="#000000"
     transform="matrix(0.0666667 0 0 0.0666667 -164.667 -603)"
     d="M 6798.96,9603.11 L 6802.81,9597.3 L 6808.87,9598.58 L 6886.94,9795.39 L 6828.99,9810.91 L 6798.96,9603.11 Z "
     id="path47" />
  <path
     d="M 16.015625,0 V -143.16406 H 34.960937 V -84.375 H 109.375 v -58.78906 h 18.94531 V 0 H 109.375 V -67.480469 H 34.960937 V 0 Z"
     id="text48"
     style="font-size:200px;font-family:Arial"
     transform="matrix(0.0666667 0 0 0.0666667 289.562 62.6325)"
     aria-label="H" />
  <path
     stroke="none"
     fill="#000000"
     transform="matrix(0.0666667 0 0 0.0666667 -164.667 -603)"
     d="M 6799.47,9591.46 L 6802.81,9597.3 L 6798.96,9603.11 L 6555.66,9603.3 L 6555.66,9591.3 L 6799.47,9591.46 Z "
     id="path48" />
  <path
     d="M 15.234375,0 V -143.16406 H 34.667969 L 109.86328,-30.761719 V -143.16406 h 18.16406 V 0 H 108.59375 L 33.398437,-112.5 V 0 Z M 225.58594,0 V -15.234375 Q 213.47656,2.34375 192.67578,2.34375 q -9.17969,0 -17.1875,-3.515625 -7.91016,-3.515625 -11.81641,-8.7890625 -3.80859,-5.3710935 -5.37109,-13.0859375 -1.07422,-5.175781 -1.07422,-16.40625 v -64.257815 h 17.57813 v 57.519534 q 0,13.769531 1.07422,18.554687 1.66015,6.933594 7.03125,10.9375 5.37109,3.90625 13.28125,3.90625 7.91015,0 14.84375,-4.003906 6.93359,-4.101562 9.76562,-11.035156 2.92969,-7.03125 2.92969,-20.3125 v -55.566409 h 17.57812 V 0 Z"
     id="text49"
     style="font-size:200px;font-family:Arial"
     transform="matrix(0.0666667 0 0 0.0666667 254.178 42.02)"
     aria-label="Nu" />
  <path
     d="M 0.87890625,0 56.25,-74.609375 7.421875,-143.16406 h 22.558594 l 25.976562,36.71875 q 8.105469,11.425779 11.523438,17.578123 4.785156,-7.8125 11.328125,-16.308593 l 28.808596,-37.98828 h 20.60547 L 77.929687,-75.683594 132.12891,0 h -23.4375 L 72.65625,-51.074219 q -3.027344,-4.394531 -6.25,-9.570312 -4.785156,7.8125 -6.835938,10.742187 L 23.632812,0 Z"
     id="text50"
     style="font-size:200px;font-family:Arial"
     transform="matrix(0.0666667 0 0 0.0666667 336.352 42.836)"
     aria-label="X" />
  <path
     stroke="#000000"
     stroke-width="10"
     fill="none"
     transform="matrix(0.0666667 0 0 0.0666667 -164.667 -603)"
     d="M 7658.28,9483.91 A 71.7999,71.7999 0 1 0 7801.88,9483.91A 71.7999,71.7999 0 1 0 7658.28,9483.91Z "
     id="path50" />
  <path
     stroke="none"
     fill="#000000"
     transform="matrix(0.0666667 0 0 0.0666667 -164.667 -603)"
     d="M 7690.41,9478.58 L 7769.08,9478.58 L 7769.08,9488.58 L 7690.41,9488.58 Z "
     id="path51" />
  <path
     stroke="#000000"
     stroke-width="10"
     fill="none"
     transform="matrix(0.0666667 0 0 0.0666667 -164.667 -603)"
     d="M 5666.03,9420.33 A 71.7999,71.7999 0 1 0 5809.63,9420.33A 71.7999,71.7999 0 1 0 5666.03,9420.33Z "
     id="path52" />
  <path
     stroke="none"
     fill="#000000"
     transform="matrix(0.0666667 0 0 0.0666667 -164.667 -603)"
     d="M 5698.17,9415 L 5776.83,9415 L 5776.83,9425 L 5698.17,9425 Z "
     id="path53" />
  <path
     stroke="#ff8040"
     stroke-width="12"
     fill="none"
     transform="matrix(0.0666667 0 0 0.0666667 -164.667 -603)"
     d="M 4812.78,9847.3 C 4812.78,9847.3 4787.32,9821.84 4787.32,9821.84 C 4787.32,9821.84 4939.79,9669.38 4939.79,9669.38 C 4939.79,9669.38 4914.33,9643.92 4914.33,9643.92 C 4914.33,9643.92 5016.15,9643.92 5016.15,9643.92 C 5016.15,9643.92 5016.15,9745.75 5016.15,9745.75 C 5016.15,9745.75 4990.7,9720.29 4990.7,9720.29 C 4990.7,9720.29 4838.23,9872.75 4838.23,9872.75 C 4838.23,9872.75 4812.78,9847.3 4812.78,9847.3 "
     id="path54" />
  <path
     d="M 6.1523437,-30.957031 23.535156,-33.691406 Q 25,-23.242187 31.640625,-17.675781 q 6.738281,5.566406 18.75,5.566406 12.109375,0 17.96875,-4.882812 5.859375,-4.980469 5.859375,-11.621094 0,-5.957031 -5.175781,-9.375 -3.613282,-2.34375 -17.96875,-5.957031 -19.335938,-4.882813 -26.855469,-8.398438 -7.421875,-3.613281 -11.328125,-9.863281 -3.8085937,-6.347656 -3.8085937,-13.964844 0,-6.933594 3.1249997,-12.792969 3.222657,-5.957031 8.691406,-9.863281 Q 25,-101.85547 32.03125,-103.90625 q 7.128906,-2.14844 15.234375,-2.14844 12.207031,0 21.386719,3.51563 9.277343,3.515623 13.671875,9.57031 4.394531,5.957031 6.054687,16.015625 l -17.1875,2.34375 q -1.171875,-8.007812 -6.835937,-12.5 -5.566407,-4.492187 -15.820313,-4.492187 -12.109375,0 -17.285156,4.003906 -5.175781,4.003906 -5.175781,9.375 0,3.417969 2.148437,6.152344 2.148438,2.832031 6.738281,4.6875 2.636719,0.976562 15.527344,4.492187 18.652344,4.980469 25.976563,8.203125 7.421875,3.125 11.621093,9.179688 4.199219,6.054687 4.199219,15.039062 0,8.789063 -5.175781,16.601562 -5.078125,7.7148443 -14.746094,12.0117193 -9.667969,4.1992187 -21.875,4.1992187 -20.214844,0 -30.859375,-8.3984375 Q 9.0820313,-14.453125 6.1523437,-30.957031 Z M 113.18359,39.746094 V -103.71094 h 16.01563 v 13.476565 q 5.66406,-7.910156 12.79297,-11.816405 7.1289,-4.00391 17.28515,-4.00391 13.28125,0 23.4375,6.83594 10.15625,6.835938 15.33203,19.335938 5.17579,12.402343 5.17579,27.246093 0,15.917969 -5.76172,28.710938 -5.66407,12.695312 -16.60157,19.5312498 -10.83984,6.7382812 -22.85156,6.7382812 -8.78906,0 -15.82031,-3.7109375 -6.93359,-3.7109375 -11.42578,-9.3750005 v 50.488282 z m 15.91797,-91.015625 q 0,20.019531 8.10547,29.589844 8.10547,9.570312 19.62891,9.570312 11.71875,0 20.01953,-9.863281 8.39844,-9.960938 8.39844,-30.761719 0,-19.824219 -8.20313,-29.6875 -8.10547,-9.863281 -19.43359,-9.863281 -11.23047,0 -19.92188,10.546875 -8.59375,10.449219 -8.59375,30.46875 z"
     id="text54"
     style="font-size:200px;font-family:Arial;fill:#ff8040"
     transform="matrix(0.0666667 0 0 0.0666667 134.292 65.2917)"
     aria-label="sp" />
  <path
     d="M 75.512695,-12.670898 V 0 H 4.5410156 Q 4.3945312,-4.7607422 6.0791016,-9.1552734 8.7890625,-16.40625 14.72168,-23.4375 q 6.005859,-7.03125 17.285156,-16.259766 17.504883,-14.355468 23.657226,-22.705078 6.152344,-8.422851 6.152344,-15.893554 0,-7.836914 -5.639648,-13.183594 -5.566406,-5.419922 -14.575196,-5.419922 -9.521484,0 -15.234375,5.712891 -5.71289,5.71289 -5.786132,15.820312 L 7.03125,-76.757812 q 1.3916016,-15.161133 10.473633,-23.07129 9.082031,-7.983398 24.389648,-7.983398 15.454102,0 24.462891,8.569336 9.008789,8.569336 9.008789,21.240234 0,6.445313 -2.636719,12.670899 -2.636719,6.225586 -8.789062,13.110351 -6.079102,6.884766 -20.288086,18.896485 -11.865235,9.960937 -15.234375,13.549804 -3.369141,3.515625 -5.566407,7.104493 z"
     id="text55"
     style="font-size:150px;font-family:Arial;fill:#ff8040"
     transform="matrix(0.0666667 0 0 0.0666667 148.374 60.0917)"
     aria-label="2" />
</svg>
