<?xml version="1.0" encoding="UTF-8" standalone="no"?>
<svg
   xmlns:dc="http://purl.org/dc/elements/1.1/"
   xmlns:cc="http://creativecommons.org/ns#"
   xmlns:rdf="http://www.w3.org/1999/02/22-rdf-syntax-ns#"
   xmlns:svg="http://www.w3.org/2000/svg"
   xmlns="http://www.w3.org/2000/svg"
   xmlns:sodipodi="http://sodipodi.sourceforge.net/DTD/sodipodi-0.dtd"
   xmlns:inkscape="http://www.inkscape.org/namespaces/inkscape"
   fill-opacity="1"
   color-rendering="auto"
   color-interpolation="auto"
   text-rendering="auto"
   stroke="black"
   stroke-linecap="square"
   width="615"
   stroke-miterlimit="10"
   shape-rendering="auto"
   stroke-opacity="1"
   fill="black"
   stroke-dasharray="none"
   font-weight="normal"
   stroke-width="1"
   height="165"
   font-family="'Dialog'"
   font-style="normal"
   stroke-linejoin="miter"
   font-size="12px"
   stroke-dashoffset="0"
   image-rendering="auto"
   version="1.1"
   id="svg53"
   sodipodi:docname="Diels-Alder (1,3-butadiene + ethylene).svg"
   inkscape:version="0.92.4 (5da689c313, 2019-01-14)">
  <metadata
     id="metadata57">
    <rdf:RDF>
      <cc:Work
         rdf:about="">
        <dc:format>image/svg+xml</dc:format>
        <dc:type
           rdf:resource="http://purl.org/dc/dcmitype/StillImage" />
      </cc:Work>
    </rdf:RDF>
  </metadata>
  <sodipodi:namedview
     pagecolor="#ffffff"
     bordercolor="#666666"
     borderopacity="1"
     objecttolerance="10"
     gridtolerance="10"
     guidetolerance="10"
     inkscape:pageopacity="0"
     inkscape:pageshadow="2"
     inkscape:window-width="640"
     inkscape:window-height="480"
     id="namedview55"
     showgrid="false"
     inkscape:zoom="0.56422764"
     inkscape:cx="307.5"
     inkscape:cy="82.5"
     inkscape:window-x="0"
     inkscape:window-y="0"
     inkscape:window-maximized="0"
     inkscape:current-layer="svg53" />
  <!--Generated by Marvin with Batik SVG Generator-->
  <defs
     id="genericDefs">
    <defs
       id="756819872710-defs1">
      <clipPath
         id="756819872955-clipPath1"
         clipPathUnits="userSpaceOnUse">
        <path
           id="path3"
           d="M0 0 L615 0 L615 165 L0 165 L0 0 Z" />
      </clipPath>
    </defs>
  </defs>
  <g
     style="text-rendering:geometricPrecision"
     id="g9">
    <path
       style="stroke:none"
       inkscape:connector-curvature="0"
       id="path7"
       clip-path="url(#756819872955-clipPath1)"
       d="m 79.9595,23.5952 c 0.7187,-0.415 0.9648,-1.3335 0.5499,-2.0521 -0.4149,-0.7187 -1.3335,-0.9648 -2.0521,-0.5498 L 24.4263,52.189 c -0.7186,0.4149 -0.9647,1.3334 -0.5498,2.052 0.4149,0.7187 1.3335,0.9648 2.0521,0.5499 z M 73.4698,12.3549 C 74.1884,11.94 74.4345,11.0215 74.0196,10.3028 73.6047,9.5842 72.6862,9.3381 71.9675,9.753 L 10.1462,45.4466 c -0.7187,0.415 -0.9648,1.3335 -0.5499,2.0521 0.415,0.7187 1.3335,0.9648 2.0521,0.5498 z" />
  </g>
  <g
     style="text-rendering:geometricPrecision"
     id="g13">
    <path
       style="stroke:none"
       inkscape:connector-curvature="0"
       id="path11"
       clip-path="url(#756819872955-clipPath1)"
       d="m 9.3951,46.7476 v 71.3873 c 0,0.8298 0.6724,1.5022 1.5022,1.5022 0.8298,0 1.5022,-0.6724 1.5022,-1.5022 V 46.7476 c 0,-0.8298 -0.6724,-1.5022 -1.5022,-1.5022 -0.8298,0 -1.5022,0.6724 -1.5022,1.5022 z" />
  </g>
  <g
     style="text-rendering:geometricPrecision"
     id="g17">
    <path
       style="stroke:none"
       inkscape:connector-curvature="0"
       id="path15"
       clip-path="url(#756819872955-clipPath1)"
       d="m 25.9286,110.0916 c -0.7186,-0.4149 -1.6372,-0.1688 -2.0521,0.5498 -0.4149,0.7187 -0.1688,1.6372 0.5498,2.0521 l 54.031,31.1957 c 0.7186,0.4149 1.6372,0.1688 2.0521,-0.5498 0.4149,-0.7187 0.1688,-1.6372 -0.5499,-2.0521 z m -14.2802,6.7423 c -0.7186,-0.4149 -1.6371,-0.1688 -2.0521,0.5498 -0.4149,0.7187 -0.1688,1.6372 0.5499,2.0521 l 61.8213,35.6936 c 0.7187,0.415 1.6372,0.1689 2.0521,-0.5498 0.4149,-0.7186 0.1688,-1.6371 -0.5498,-2.0521 z" />
  </g>
  <g
     style="text-rendering:geometricPrecision"
     id="g21"
     transform="translate(40)">
    <path
       style="stroke:none"
       inkscape:connector-curvature="0"
       id="path19"
       clip-path="url(#756819872955-clipPath1)"
       d="m 163.7926,46.7476 c 0,-0.8298 -0.6724,-1.5022 -1.5022,-1.5022 -0.8298,0 -1.5022,0.6724 -1.5022,1.5022 v 71.3873 c 0,0.8298 0.6724,1.5022 1.5022,1.5022 0.8298,0 1.5022,-0.6724 1.5022,-1.5022 z m -12.9792,0 c 0,-0.8298 -0.6724,-1.5022 -1.5022,-1.5022 -0.8298,0 -1.5022,0.6724 -1.5022,1.5022 v 71.3873 c 0,0.8298 0.6724,1.5022 1.5022,1.5022 0.8298,0 1.5022,-0.6724 1.5022,-1.5022 z" />
  </g>
  <g
     style="text-rendering:geometricPrecision"
     id="g25">
    <path
       style="stroke:none"
       inkscape:connector-curvature="0"
       id="path23"
       clip-path="url(#756819872955-clipPath1)"
       d="m 541.4127,9.753 -61.8214,35.6936 c -0.7186,0.415 -0.9648,1.3335 -0.5499,2.0521 0.415,0.7187 1.3335,0.9648 2.0521,0.5498 l 61.8214,-35.6936 c 0.7186,-0.4149 0.9647,-1.3334 0.5498,-2.0521 -0.4149,-0.7186 -1.3334,-0.9647 -2.052,-0.5498 z" />
  </g>
  <g
     style="text-rendering:geometricPrecision"
     id="g29">
    <path
       style="stroke:none"
       inkscape:connector-curvature="0"
       id="path27"
       clip-path="url(#756819872955-clipPath1)"
       d="m 541.4127,12.3549 61.8213,35.6936 c 0.7186,0.415 1.6372,0.1689 2.0521,-0.5498 0.4149,-0.7186 0.1688,-1.6371 -0.5498,-2.0521 L 542.9149,9.753 c -0.7186,-0.4149 -1.6371,-0.1688 -2.052,0.5498 -0.415,0.7187 -0.1689,1.6372 0.5498,2.0521 z" />
  </g>
  <g
     style="text-rendering:geometricPrecision"
     id="g33">
    <path
       style="stroke:none"
       inkscape:connector-curvature="0"
       id="path31"
       clip-path="url(#756819872955-clipPath1)"
       d="m 494.8239,55.7433 c 0,-0.8299 -0.6724,-1.5023 -1.5023,-1.5023 -0.8298,0 -1.5022,0.6724 -1.5022,1.5023 v 53.3959 c 0,0.8298 0.6724,1.5022 1.5022,1.5022 0.8299,0 1.5023,-0.6724 1.5023,-1.5022 z m -12.9793,-8.9957 c 0,-0.8298 -0.6724,-1.5022 -1.5022,-1.5022 -0.8298,0 -1.5022,0.6724 -1.5022,1.5022 v 71.3873 c 0,0.8298 0.6724,1.5022 1.5022,1.5022 0.8298,0 1.5022,-0.6724 1.5022,-1.5022 z" />
  </g>
  <g
     style="text-rendering:geometricPrecision"
     id="g37">
    <path
       style="stroke:none"
       inkscape:connector-curvature="0"
       id="path35"
       clip-path="url(#756819872955-clipPath1)"
       d="m 479.5913,119.4358 61.8214,35.6936 c 0.7186,0.415 1.6371,0.1689 2.052,-0.5498 0.4149,-0.7186 0.1688,-1.6371 -0.5498,-2.0521 l -61.8214,-35.6936 c -0.7186,-0.4149 -1.6371,-0.1688 -2.0521,0.5498 -0.4149,0.7187 -0.1687,1.6372 0.5499,2.0521 z" />
  </g>
  <g
     style="text-rendering:geometricPrecision"
     id="g41">
    <path
       style="stroke:none"
       inkscape:connector-curvature="0"
       id="path39"
       clip-path="url(#756819872955-clipPath1)"
       d="m 542.9149,155.1294 61.8214,-35.6936 c 0.7186,-0.4149 0.9647,-1.3334 0.5498,-2.0521 -0.4149,-0.7186 -1.3335,-0.9647 -2.0521,-0.5498 l -61.8213,35.6936 c -0.7187,0.415 -0.9648,1.3335 -0.5498,2.0521 0.4149,0.7187 1.3334,0.9648 2.052,0.5498 z" />
  </g>
  <g
     style="text-rendering:geometricPrecision"
     id="g45">
    <path
       style="stroke:none"
       inkscape:connector-curvature="0"
       id="path43"
       clip-path="url(#756819872955-clipPath1)"
       d="M 605.4874,118.1349 V 46.7476 c 0,-0.8298 -0.6724,-1.5022 -1.5022,-1.5022 -0.8299,0 -1.5023,0.6724 -1.5023,1.5022 v 71.3873 c 0,0.8298 0.6724,1.5022 1.5023,1.5022 0.8298,0 1.5022,-0.6724 1.5022,-1.5022 z" />
  </g>
  <g
     style="text-rendering:geometricPrecision"
     id="g49"
     transform="translate(10)">
    <path
       style="stroke:none"
       inkscape:connector-curvature="0"
       id="path47"
       clip-path="url(#756819872955-clipPath1)"
       d="m 362.4945,80.9927 h -112.023 v 2.8971 h 112.023 v 6.9531 l 23.1772,-8.4017 -23.1772,-8.4017 z" />
  </g>
  <text
     xml:space="preserve"
     style="font-style:normal;font-variant:normal;font-weight:normal;font-stretch:normal;font-size:37.33333333px;line-height:1.25;font-family:sans-serif;-inkscape-font-specification:'sans-serif, Normal';font-variant-ligatures:normal;font-variant-caps:normal;font-variant-numeric:normal;font-feature-settings:normal;text-align:center;letter-spacing:0px;word-spacing:0px;writing-mode:lr;text-anchor:middle;fill:#000000;fill-opacity:1;stroke:none;"
     x="115.88473"
     y="95.244957"
     id="text86"><tspan
       sodipodi:role="line"
       id="tspan84"
       x="115.88473"
       y="95.244957">+</tspan></text>
</svg>
